<svg xmlns="http://www.w3.org/2000/svg" viewBox="0 0 47.805 47.805">
  <defs>
    <style>
      .cls-1 {
        fill: #fff;
        stroke: #768e9b;
      }

      .cls-2, .cls-4 {
        fill: none;
      }

      .cls-2 {
        stroke-miterlimit: 10;
      }

      .cls-3, .cls-5 {
        stroke: none;
      }

      .cls-5 {
        fill: #768e9b;
      }
    </style>
  </defs>
  <g id="Group_120" data-name="Group 120" transform="translate(-1170 -845)">
    <g id="Symbol_54_1" data-name="Symbol 54 – 1">
      <g id="Ellipse_1" data-name="Ellipse 1" class="cls-1" transform="translate(1170 845)">
        <circle class="cls-3" cx="23.902" cy="23.902" r="23.902"/>
        <circle class="cls-4" cx="23.902" cy="23.902" r="23.402"/>
      </g>
    </g>
    <g id="Combined_Shape" data-name="Combined Shape" class="cls-2" transform="translate(1180.562 858.897)">
      <path class="cls-3" d="M17.788,20.011V11.117H18.9V18.9H25.57V1.112H8.894V6.671H7.782V1.112H1.112V12.229H7.782v1.112H1.112V18.9H12.229v1.112H0V0H26.682V20.011ZM4.447,7.782V6.671h7.782V7.782Z"/>
      <path class="cls-5" d="M 26.18202018737793 19.51126289367676 L 26.18202018737793 18.89964294433594 L 26.18202018737793 1.111622452735901 L 26.18202018737793 0.500002384185791 L 0.5000001192092896 0.500002384185791 L 0.5000001192092896 1.111622452735901 L 0.5000001192092896 19.51126289367676 L 11.72887992858887 19.51126289367676 L 11.72887992858887 19.39964294433594 L 1.111630082130432 19.39964294433594 L 0.6116300821304321 19.39964294433594 L 0.6116300821304321 18.89964294433594 L 0.6116300821304321 13.3405122756958 L 0.6116300821304321 12.8405122756958 L 1.111630082130432 12.8405122756958 L 7.282380104064941 12.8405122756958 L 7.282380104064941 12.72888278961182 L 1.111630082130432 12.72888278961182 L 0.6116300821304321 12.72888278961182 L 0.6116300821304321 12.22888278961182 L 0.6116300821304321 1.111622452735901 L 0.6116300821304321 0.6116223931312561 L 1.111630082130432 0.6116223931312561 L 7.782380104064941 0.6116223931312561 L 8.282380104064941 0.6116223931312561 L 8.282380104064941 1.111622452735901 L 8.282380104064941 6.17075252532959 L 8.394010543823242 6.17075252532959 L 8.394010543823242 1.111622452735901 L 8.394010543823242 0.6116223931312561 L 8.894010543823242 0.6116223931312561 L 25.57040023803711 0.6116223931312561 L 26.07040023803711 0.6116223931312561 L 26.07040023803711 1.111622452735901 L 26.07040023803711 18.89964294433594 L 26.07040023803711 19.39964294433594 L 25.57040023803711 19.39964294433594 L 18.8996410369873 19.39964294433594 L 18.3996410369873 19.39964294433594 L 18.3996410369873 18.89964294433594 L 18.3996410369873 11.617262840271 L 18.28800964355469 11.617262840271 L 18.28800964355469 19.51126289367676 L 26.18202018737793 19.51126289367676 M 11.72887992858887 7.282382488250732 L 11.72887992858887 7.17075252532959 L 4.946500301361084 7.17075252532959 L 4.946500301361084 7.282382488250732 L 11.72887992858887 7.282382488250732 M 26.68202018737793 20.01126289367676 L 17.78800964355469 20.01126289367676 L 17.78800964355469 11.117262840271 L 18.8996410369873 11.117262840271 L 18.8996410369873 18.89964294433594 L 25.57040023803711 18.89964294433594 L 25.57040023803711 1.111622452735901 L 8.894010543823242 1.111622452735901 L 8.894010543823242 6.67075252532959 L 7.782380104064941 6.67075252532959 L 7.782380104064941 1.111622452735901 L 1.111630082130432 1.111622452735901 L 1.111630082130432 12.22888278961182 L 7.782380104064941 12.22888278961182 L 7.782380104064941 13.3405122756958 L 1.111630082130432 13.3405122756958 L 1.111630082130432 18.89964294433594 L 12.22887992858887 18.89964294433594 L 12.22887992858887 20.01126289367676 L 9.368896769501589e-08 20.01126289367676 L 9.368896769501589e-08 1.111622452735901 L 9.368896769501589e-08 2.400512585154502e-06 L 26.68202018737793 2.400512585154502e-06 L 26.68202018737793 1.111622452735901 L 26.68202018737793 18.89964294433594 L 26.68202018737793 20.01126289367676 Z M 12.22887992858887 7.782382488250732 L 4.446500301361084 7.782382488250732 L 4.446500301361084 6.67075252532959 L 12.22887992858887 6.67075252532959 L 12.22887992858887 7.782382488250732 Z"/>
    </g>
  </g>
</svg>