<svg xmlns="http://www.w3.org/2000/svg" width="160" height="56" viewBox="0 0 160 56">
    <g fill="none" fill-rule="evenodd">
        <path fill="#0089CE" d="M58.562 21.22l3.945-11.758c.265-.814.854-1.004 1.347-1.004.02 0 1.346.02 1.346 1.516 0 .151-.019.397-.113.681l-4.06 11.474c-.454 1.307-1.061 1.95-2.39 1.95-1.63 0-2.123-.737-2.56-1.95L52.02 10.655c-.039-.132-.114-.36-.114-.625 0-.871.436-1.553 1.422-1.553.626 0 1.025.303 1.252.947l3.983 11.797zM71.215 9.822c0-.644.437-1.345 1.271-1.345.797 0 1.366.606 1.366 1.345v12.913c0 .739-.494 1.345-1.29 1.345a1.327 1.327 0 0 1-1.347-1.345V9.822zM80.833 9.822c0-.739.569-1.345 1.347-1.345.872 0 1.29.834 1.29 1.345v10.509c0 .606.075.795.55.795h5.348c.948 0 1.309.663 1.309 1.269 0 .947-.645 1.344-1.195 1.344h-6.449c-1.138 0-2.2-.265-2.2-2.405V9.822zM96.577 9.822c0-.739.57-1.345 1.347-1.345.872 0 1.29.834 1.29 1.345v10.509c0 .606.076.795.55.795h5.349c.948 0 1.309.663 1.309 1.269 0 .947-.645 1.344-1.196 1.344h-6.448c-1.139 0-2.2-.265-2.2-2.405V9.822zM115.983 17.623h4.059l-2.03-5.813-2.03 5.813zm4.95 2.537h-5.841l-1.063 2.954c-.341.966-1.024.966-1.27.966-.797 0-1.404-.474-1.404-1.288 0-.264.057-.473.113-.606l4.666-12.156c.19-.473.702-1.553 1.802-1.553.759 0 1.5.341 1.954 1.553l4.647 12.156c.038.095.132.322.132.55 0 .132-.037 1.363-1.479 1.363-.702 0-1.043-.511-1.214-.985l-1.043-2.954zM141.192 14.953c.72 0 2.067.398 2.067 2.178v1.931c0 4.033-3.641 5.037-6.145 5.037-4.703 0-7.246-3.522-7.246-7.574 0-3.92 2.466-8.047 7.095-8.047 3.356 0 5.765 1.988 5.765 3.408 0 .606-.417 1.344-1.213 1.344-.285 0-.589-.018-1.385-.833-.986-.984-1.688-1.344-2.978-1.344-3.167 0-4.552 2.802-4.552 5.377 0 2.973 1.783 4.98 4.628 4.98 2.978 0 3.414-1.969 3.414-2.367v-1.04c0-.323-.19-.493-.493-.493h-3.339c-.72 0-1.213-.663-1.213-1.345 0-.795.588-1.212 1.119-1.212h4.476zM157.734 14.764c.853 0 1.252.682 1.252 1.307 0 1.155-.986 1.23-1.176 1.23h-5.406v3.276c0 .246.19.53.55.53h5.273c.455 0 1.385.133 1.385 1.344 0 1.194-1.12 1.288-1.347 1.288h-6.468c-1.347 0-2.03-.7-2.03-2.367V11.015c0-1.079.532-2.196 1.992-2.196h6.43c.417 0 1.423.113 1.423 1.363 0 1.06-.892 1.269-1.347 1.269h-5.425c-.34 0-.436.283-.436.568v2.745h5.33zM55.508 36.179v5.604c0 .493-.417 1.345-1.29 1.345-.74 0-1.346-.587-1.346-1.345V28.87c0-.7.512-1.344 1.27-1.344.74 0 1.366.568 1.366 1.344v4.677h6.108V28.87c0-.7.512-1.344 1.27-1.344.76 0 1.348.605 1.348 1.344v12.913c0 .701-.494 1.345-1.271 1.345a1.35 1.35 0 0 1-1.347-1.345V36.18h-6.108zM73.188 35.327c0 2.29 1.138 5.17 4.078 5.17 3.015 0 4.077-2.974 4.077-5.17 0-2.273-1.1-5.17-4.058-5.17-2.864 0-4.097 2.708-4.097 5.17m-2.77 0c0-3.447 1.916-7.801 6.867-7.801 4.931 0 6.847 4.373 6.847 7.8 0 3.409-1.916 7.802-6.847 7.802-4.95 0-6.866-4.393-6.866-7.801M99.042 28.775c0-.814.683-1.25 1.328-1.25.91 0 1.309.644 1.309 1.212v8.389c0 4.28-2.713 6.002-5.71 6.002-2.389 0-5.67-1.268-5.67-6.002v-8.389c0-.851.74-1.212 1.308-1.212 1.005 0 1.328.777 1.328 1.25v8.35c0 2.84 1.973 3.427 3.072 3.427.778 0 3.035-.36 3.035-3.426v-8.35zM119.169 30.518c0 .719-.588 1.325-1.347 1.325-.228 0-.474 0-1.195-.606-1.024-.833-1.84-1.174-3.11-1.174-1.783 0-2.314.928-2.314 1.704 0 1.193.815 1.572 3.49 2.33 3.49 1.002 4.59 2.423 4.59 4.468 0 3.01-2.75 4.563-5.463 4.563-3.736 0-6.107-2.726-6.107-3.957 0-.682.512-1.345 1.365-1.345.57 0 .683.114 1.555 1.118.342.397 1.347 1.533 3.32 1.533 1.366 0 2.56-.72 2.56-1.799 0-1.136-.796-1.495-3.774-2.423-3.13-.966-4.324-2.386-4.324-4.431 0-2.537 1.915-4.299 5.083-4.299 2.428 0 5.671 1.44 5.671 2.993M133.264 33.812c.853 0 1.252.682 1.252 1.307 0 1.155-.986 1.23-1.176 1.23h-5.406v3.276c0 .246.19.53.55.53h5.273c.455 0 1.385.133 1.385 1.344 0 1.194-1.12 1.288-1.347 1.288h-6.468c-1.347 0-2.03-.7-2.03-2.367V30.063c0-1.079.532-2.196 1.992-2.196h6.43c.418 0 1.423.113 1.423 1.363 0 1.06-.892 1.269-1.347 1.269h-5.425c-.34 0-.436.283-.436.568v2.745h5.33zM144.605 30.624c0 .182-.147.213-.213.213-.223 0-.456-.531-.456-.623 0-.126.122-.192.218-.166.152.035.451.394.451.576zm-1.125.122c-.106-.223-.117-.243-.117-.304a.19.19 0 0 1 .193-.197c.132 0 .183.08.279.233.157.247.177.328.177.394 0 .198-.162.233-.233.233-.127 0-.147-.035-.299-.36zm-2.21 2.463c0 .42 0 .602 1.186.602.396 0 .862-.02 1.262-.106.112-.025.137-.025.172-.025.234 0 .335.192.335.369 0 .122-.066.258-.248.309-.147.04-.659.131-1.47.131-1.58 0-1.936-.293-1.936-1.067v-2.443c0-.274 0-.537.35-.537s.35.263.35.537v.798c.775-.03 1.667-.263 2.073-.434.258-.112.288-.127.37-.127.171 0 .324.147.324.354s-.086.32-.745.511c-.411.117-1.105.32-2.022.354v.774zM145.95 33.65c0 .157.021.186.152.186.476 0 1.678-.389 2.281-1.547.101-.192.157-.304.344-.304.122 0 .366.091.366.344 0 .263-.396.896-.878 1.315a3.715 3.715 0 0 1-2.37.926c-.452 0-.634-.202-.634-.632v-2.884c0-.278 0-.541.355-.541.385 0 .385.227.385.541v2.595zM150.985 32.703c-.198 0-.223-.07-.375-.47a29.704 29.704 0 0 0-.163-.405.576.576 0 0 1-.04-.192c0-.182.157-.294.3-.294.228 0 .298.182.349.309.126.324.238.602.238.789 0 .005-.03.263-.31.263m1.212 1.058c-.451.541-1.292.92-1.728.92-.243 0-.34-.156-.34-.328 0-.258.193-.299.31-.324.577-.122 1.287-.374 1.601-1.38.045-.143.05-.204.137-.755.015-.111.046-.319.314-.319.137 0 .324.07.324.324 0 .395-.131 1.275-.618 1.862m-2.194-.683c-.218 0-.268-.126-.375-.395-.218-.562-.243-.622-.243-.693 0-.132.086-.278.293-.278.193 0 .218.045.457.577.162.364.162.425.162.505 0 .071-.051.284-.294.284M157.773 30.346c.04.07.178.329.178.485 0 .142-.117.223-.229.223-.121 0-.162-.056-.207-.162-.061-.131-.183-.424-.183-.526 0-.116.102-.187.203-.187.092 0 .152.025.238.167m-.613.218c.026.035.182.293.182.465 0 .187-.146.243-.233.243-.117 0-.157-.051-.208-.167-.05-.116-.182-.42-.182-.521 0-.102.086-.183.188-.183.126 0 .187.056.253.163m-1.88 1.108c-.101 0-.167-.046-.259-.117-.177-.132-.237-.167-.754-.475-.056-.036-.183-.107-.183-.294 0-.177.157-.37.35-.37.146 0 .466.208.628.314.517.33.547.42.547.562 0 .182-.111.38-.33.38m-1.606 2.63c0-.253.142-.375.386-.375.491 0 1.54-.03 2.422-1.01.31-.35.42-.568.638-1.069.016-.04.082-.187.3-.187.152 0 .394.107.394.349 0 .329-1.038 2.656-3.76 2.656-.308 0-.38-.217-.38-.364m.938-1.416c-.07 0-.136-.026-.263-.107-.112-.075-.619-.384-.725-.45-.06-.04-.172-.111-.172-.283s.136-.345.329-.345c.167 0 .654.304.877.451.172.111.299.212.299.374 0 .157-.112.36-.345.36M144.397 40.137c-.264 0-.304-.173-.36-.38-.324-1.254-.709-2.14-.806-2.342-.308-.653-.308-.693-.308-.779 0-.238.222-.35.354-.35.218 0 .279.133.426.451.72 1.548 1.064 2.798 1.064 3.005 0 .385-.31.395-.37.395m-3.274-.476c-.273.415-.395.481-.552.481a.356.356 0 0 1-.36-.364c0-.106.046-.183.122-.3.415-.611.841-1.243.953-2.725.01-.147.03-.4.354-.4.254 0 .37.157.37.344 0 .147-.116 1.785-.887 2.964M148.727 36.808c.653 0 .715.42.715.931 0 2.21-1.672 2.65-2.474 2.65-.136 0-.45 0-.45-.353 0-.289.207-.36.334-.36.654 0 1.018-.172 1.216-.338.193-.163.639-.592.639-1.549 0-.298-.026-.298-.229-.298h-2.285c-.157 0-.157.005-.157.182v.45c0 .268 0 .541-.345.541-.344 0-.344-.273-.344-.54v-.76c0-.354.264-.556.654-.556h1.003v-.288c0-.273 0-.542.35-.542.375 0 .375.238.375.542v.288h.998zM150.873 36.924c-.258 0-.543 0-.543-.333 0-.334.285-.334.543-.334h2.017c.4 0 .659.146.659.556 0 .111-.051.718-.624 1.533.29.228.502.405.907.85.446.486.497.617.497.743 0 .193-.192.34-.37.34-.142 0-.152-.01-.482-.415a7.63 7.63 0 0 0-.988-1.002c-.897.92-1.935 1.406-2.199 1.406-.167 0-.34-.151-.34-.379s.148-.288.285-.34c1.829-.687 2.538-2.184 2.538-2.534 0-.09-.04-.09-.162-.09h-1.738zM53.283 52.458c0 .358.223.808.741.808.542 0 .753-.392.753-.967 0-.9-.388-1.03-.724-1.03-.707 0-.77.597-.77.78v.41zm-.73-2.76c0-.193.166-.364.383-.364.244 0 .347.239.347.37v1.104c.314-.296.764-.296.866-.296.992 0 1.368.848 1.368 1.735 0 .905-.404 1.776-1.413 1.776-.536 0-.718-.21-.873-.387-.016.2-.102.387-.37.387-.308 0-.308-.222-.308-.398v-3.927zM55.978 51.143a.518.518 0 0 1-.057-.244c0-.256.222-.387.36-.387.204 0 .296.085.358.21l.833 1.616c.096.194.108.211.2.223l.786-1.805c.022-.045.113-.25.353-.25.13 0 .382.068.382.404a.49.49 0 0 1-.052.205l-1.23 2.851c-.257.597-.645.717-1.078.717-.604 0-.907-.21-.907-.512 0-.262.223-.364.337-.364.062 0 .137.017.393.08.063.016.12.022.194.022.223 0 .365-.137.519-.552-.228-.068-.274-.13-.416-.393l-.975-1.82zM63.697 51.28c.376 0 .673-.095.673-.532 0-.387-.292-.515-.629-.515h-1.077c-.19 0-.27.022-.27.218v.83h1.303zm-1.302 2.353c0 .242-.197.37-.399.37a.357.357 0 0 1-.382-.358v-3.468c0-.448.191-.69.668-.69h1.594c.791 0 1.296.532 1.296 1.255 0 .964-.746 1.183-.96 1.244.209.135.343.347.377.409l.578.97a.573.573 0 0 1 .096.28c0 .15-.135.364-.399.364-.197 0-.303-.056-.393-.23l-.33-.644c-.186-.359-.624-1.11-.972-1.11h-.774v1.608zM67.427 51.88c.117 0 .146-.028.146-.073 0-.174-.14-.566-.55-.566-.477 0-.573.51-.595.639h.999zm-1.017.661c.018.19.08.767.674.767.185 0 .315-.05.489-.302.134-.196.212-.241.37-.241.196 0 .32.185.32.37 0 .415-.51.868-1.201.868-.488 0-1.403-.257-1.403-1.675 0-1.311.723-1.782 1.358-1.782.707 0 1.285.571 1.285 1.368 0 .403-.107.627-.41.627H66.41zM68.677 53.107c0-.208.14-.342.353-.342.112 0 .174.01.37.213.175.185.377.341.803.341.387 0 .455-.274.455-.37 0-.268-.281-.319-.578-.374-.899-.174-1.252-.527-1.252-1.015 0-.526.443-1.014 1.269-1.014.56 0 1.262.247 1.262.645 0 .14-.1.347-.347.347-.09 0-.152-.011-.343-.135-.202-.134-.331-.19-.561-.19-.157 0-.517.05-.517.314 0 .151.124.235.343.291.898.241.993.264 1.195.432.264.218.292.532.292.689 0 .515-.37 1.064-1.324 1.064-.826 0-1.42-.515-1.42-.896M72.9 53.64a.358.358 0 0 1-.37.363c-.224 0-.342-.213-.342-.364v-2.723c0-.224.169-.37.365-.37.23 0 .348.213.348.37v2.723zm.096-3.806a.45.45 0 0 1-.903 0 .45.45 0 1 1 .903 0zM75.87 52.06c0-.09 0-.769-.753-.769-.19 0-.719 0-.719.992 0 .414.107.975.702.975.657 0 .77-.571.77-.795v-.404zm.712 1.55c0 .174 0 .393-.303.393-.259 0-.343-.184-.365-.381-.146.168-.331.381-.853.381-.993 0-1.398-.857-1.398-1.748 0-.874.376-1.709 1.347-1.709.095 0 .55 0 .86.292V49.75c0-.13.094-.365.341-.365.214 0 .37.168.37.36v3.865zM78.965 51.88c.118 0 .146-.028.146-.073 0-.174-.14-.566-.55-.566-.477 0-.572.51-.595.639h1zm-1.015.661c.016.19.078.767.673.767.185 0 .314-.05.488-.302.135-.196.213-.241.37-.241.197 0 .32.185.32.37 0 .415-.51.868-1.2.868-.489 0-1.404-.257-1.404-1.675 0-1.311.724-1.782 1.358-1.782.708 0 1.286.571 1.286 1.368 0 .403-.107.627-.41.627H77.95zM83.235 53.634a.36.36 0 0 1-.36.37c-.24 0-.353-.22-.353-.376v-1.754c0-.258-.096-.61-.567-.61-.528 0-.78.46-.78.711v1.659a.36.36 0 0 1-.36.37c-.23 0-.358-.197-.358-.376v-2.135c0-.1-.046-.526-.046-.616 0-.162.118-.331.36-.331.252 0 .359.207.42.359.09-.095.337-.36.955-.36.65 0 1.089.416 1.089 1.015v2.074zM84.046 51.314c-.196 0-.314-.174-.314-.342 0-.207.18-.325.314-.325h.264v-.61c0-.22.174-.348.36-.348.235 0 .342.196.342.341v.617h.662c.185 0 .314.157.314.336 0 .236-.196.331-.314.331h-.662v1.73c0 .068.017.175.112.175.079 0 .14-.062.219-.23.118-.252.224-.302.342-.302.236 0 .354.206.354.364 0 .24-.309.952-.97.952-.736 0-.759-.689-.759-.93v-1.759h-.264zM87.345 53.64a.358.358 0 0 1-.37.363c-.224 0-.342-.213-.342-.364v-2.723c0-.224.168-.37.364-.37.23 0 .348.213.348.37v2.723zm.095-3.806a.45.45 0 0 1-.903 0 .45.45 0 1 1 .903 0zM90.313 52.569c0-.095-.263-.18-.656-.18-.196 0-.814 0-.814.488 0 .32.275.426.64.426.533 0 .83-.353.83-.516v-.218zm.713.426c0 .201.05.33.1.46.04.111.057.179.057.24 0 .151-.135.308-.365.308-.286 0-.336-.213-.37-.37-.297.263-.685.376-1.077.376-.814 0-1.263-.51-1.263-1.138 0-.493.303-1.17 1.555-1.17.347 0 .571.073.65.1-.005-.162-.017-.566-.712-.566a.971.971 0 0 0-.539.135c-.303.174-.337.19-.421.19-.19 0-.354-.173-.354-.38 0-.37.623-.634 1.348-.634 1.391 0 1.391.992 1.391 1.44v1.009zM91.928 49.762c0-.196.152-.376.354-.376a.36.36 0 0 1 .364.364v3.89c0 .134-.107.363-.342.363a.372.372 0 0 1-.376-.375v-3.866zM98.644 50.272a.395.395 0 0 1-.399.392c-.067 0-.14 0-.353-.18-.303-.246-.545-.346-.92-.346-.528 0-.685.274-.685.504 0 .353.241.465 1.032.689 1.033.296 1.359.717 1.359 1.322 0 .891-.814 1.35-1.617 1.35-1.105 0-1.807-.806-1.807-1.171 0-.201.152-.398.404-.398.168 0 .202.034.46.331.102.118.399.454.983.454.404 0 .758-.213.758-.533 0-.336-.237-.442-1.118-.717-.925-.285-1.28-.706-1.28-1.31 0-.751.567-1.272 1.505-1.272.719 0 1.678.425 1.678.885M100.887 51.88c.118 0 .146-.028.146-.073 0-.174-.14-.566-.55-.566-.477 0-.573.51-.595.639h.999zm-1.016.661c.017.19.079.767.674.767.184 0 .314-.05.488-.302.134-.196.213-.241.37-.241.196 0 .32.185.32.37 0 .415-.51.868-1.2.868-.49 0-1.404-.257-1.404-1.675 0-1.311.724-1.782 1.358-1.782.708 0 1.286.571 1.286 1.368 0 .403-.107.627-.41.627H99.87zM103.147 53.678c0 .219-.186.325-.354.325-.269 0-.365-.196-.365-.336v-2.785c0-.201.158-.336.36-.336.05 0 .359 0 .359.37v.174c.331-.544.797-.544.915-.544.27 0 .651.124.651.443 0 .185-.119.336-.326.336-.062 0-.308-.045-.36-.045-.392 0-.88.835-.88.98v1.418zM106.575 53.056l.853-2.207c.067-.168.117-.303.365-.303.174 0 .392.107.392.353a.432.432 0 0 1-.039.174l-.999 2.504c-.084.219-.168.426-.578.426-.398 0-.488-.213-.573-.426l-.998-2.504a.402.402 0 0 1-.034-.163c0-.094.05-.364.398-.364.236 0 .292.146.354.303l.859 2.207zM109.581 53.64a.358.358 0 0 1-.37.363c-.225 0-.343-.213-.343-.364v-2.723c0-.224.169-.37.365-.37.23 0 .348.213.348.37v2.723zm.095-3.806a.45.45 0 0 1-.903 0 .45.45 0 1 1 .903 0zM112.959 51.448a.359.359 0 0 1-.37.381c-.118 0-.191-.017-.36-.252-.151-.213-.28-.291-.505-.291-.483 0-.64.577-.64.991 0 .443.197.987.696.987.168 0 .303-.023.5-.28.123-.169.213-.224.353-.224.242 0 .354.173.354.358 0 .246-.46.89-1.223.89-.742 0-1.42-.61-1.42-1.741 0-.64.24-1.72 1.453-1.72.5 0 1.162.414 1.162.901M115.23 51.88c.118 0 .146-.028.146-.073 0-.174-.14-.566-.55-.566-.477 0-.573.51-.595.639h.999zm-1.015.661c.016.19.078.767.673.767.185 0 .314-.05.488-.302.135-.196.213-.241.37-.241.197 0 .32.185.32.37 0 .415-.51.868-1.2.868-.489 0-1.404-.257-1.404-1.675 0-1.311.724-1.782 1.358-1.782.708 0 1.286.571 1.286 1.368 0 .403-.107.627-.41.627h-1.481zM116.48 53.107c0-.208.14-.342.354-.342.111 0 .174.01.37.213.174.185.376.341.803.341.387 0 .454-.274.454-.37 0-.268-.28-.319-.578-.374-.898-.174-1.251-.527-1.251-1.015 0-.526.443-1.014 1.268-1.014.561 0 1.262.247 1.262.645 0 .14-.1.347-.347.347-.09 0-.152-.011-.343-.135-.201-.134-.33-.19-.56-.19-.158 0-.517.05-.517.314 0 .151.123.235.342.291.898.241.993.264 1.195.432.264.218.292.532.292.689 0 .515-.37 1.064-1.324 1.064-.825 0-1.42-.515-1.42-.896M123.639 49.784c0-.218.168-.397.398-.397.264 0 .382.252.382.397v2.678c0 1.009-.6 1.541-1.415 1.541-.982 0-1.503-.773-1.503-1.199a.37.37 0 0 1 .375-.364c.158 0 .253.067.41.33.146.247.32.471.679.471.674 0 .674-.7.674-1.143v-2.314zM127.307 52.569c0-.095-.264-.18-.656-.18-.197 0-.814 0-.814.488 0 .32.275.426.64.426.533 0 .83-.353.83-.516v-.218zm.713.426c0 .201.05.33.1.46.04.111.057.179.057.24 0 .151-.135.308-.365.308-.286 0-.336-.213-.37-.37-.297.263-.685.376-1.077.376-.814 0-1.263-.51-1.263-1.138 0-.493.303-1.17 1.555-1.17.347 0 .571.073.65.1-.005-.162-.017-.566-.712-.566a.971.971 0 0 0-.539.135c-.303.174-.337.19-.421.19-.19 0-.354-.173-.354-.38 0-.37.623-.634 1.347-.634 1.392 0 1.392.992 1.392 1.44v1.009zM129.494 52.49c0 .18.062.768.758.768.337 0 .713-.134.713-1.014 0-.253-.056-.6-.247-.785-.118-.117-.275-.162-.494-.162-.511 0-.73.437-.73.79v.403zm-.718-1.552c0-.173 0-.392.303-.392.264 0 .348.185.365.38.152-.172.33-.38.859-.38.993 0 1.391.857 1.391 1.748 0 .874-.37 1.709-1.347 1.709-.1 0-.544 0-.853-.286v.566c0 .135-.1.37-.342.37a.369.369 0 0 1-.376-.359v-3.356zM134.375 52.569c0-.095-.264-.18-.656-.18-.197 0-.814 0-.814.488 0 .32.275.426.64.426.533 0 .83-.353.83-.516v-.218zm.713.426c0 .201.05.33.1.46.04.111.057.179.057.24 0 .151-.135.308-.365.308-.286 0-.336-.213-.37-.37-.297.263-.685.376-1.077.376-.814 0-1.263-.51-1.263-1.138 0-.493.303-1.17 1.554-1.17.348 0 .572.073.651.1-.005-.162-.017-.566-.712-.566a.971.971 0 0 0-.539.135c-.303.174-.337.19-.421.19-.19 0-.354-.173-.354-.38 0-.37.623-.634 1.347-.634 1.392 0 1.392.992 1.392 1.44v1.009zM138.622 53.634a.36.36 0 0 1-.359.37c-.241 0-.354-.22-.354-.376v-1.754c0-.258-.095-.61-.567-.61-.527 0-.78.46-.78.711v1.659a.36.36 0 0 1-.359.37c-.23 0-.359-.197-.359-.376v-2.135c0-.1-.045-.526-.045-.616 0-.162.118-.331.36-.331.252 0 .358.207.42.359.09-.095.337-.36.954-.36.651 0 1.09.416 1.09 1.015v2.074zM143.53 50.636c.028-.022.106-.09.252-.09.208 0 .387.152.387.336 0 .14-.039.219-.111.28l-.972.835c.208.045.337.247.36.286l.74 1.16a.414.414 0 0 1 .062.207c0 .185-.157.359-.348.359-.208 0-.28-.124-.364-.258l-.624-1.008c-.117-.19-.213-.253-.38-.247l-.568.488v.672c0 .218-.169.348-.365.348a.35.35 0 0 1-.353-.36v-3.899c0-.224.185-.358.37-.358.247 0 .348.207.348.347v2.28l1.566-1.378zM145.807 53.488a.52.52 0 0 1-1.039 0c0-.292.236-.516.517-.516.286 0 .522.224.522.516M148.831 50.636c.028-.022.106-.09.252-.09.208 0 .387.152.387.336 0 .14-.039.219-.111.28l-.972.835c.208.045.338.247.36.286l.74 1.16a.414.414 0 0 1 .062.207c0 .185-.157.359-.348.359-.207 0-.28-.124-.364-.258l-.624-1.008c-.117-.19-.213-.253-.38-.247l-.568.488v.672c0 .218-.169.348-.365.348a.35.35 0 0 1-.353-.36v-3.899c0-.224.185-.358.37-.358.247 0 .348.207.348.347v2.28l1.566-1.378zM151.108 53.488a.52.52 0 0 1-1.039 0c0-.292.236-.516.517-.516.286 0 .522.224.522.516M39.608 32.22c-1.08 5.128-10.467 5.296-11.738 5.592-2.299.535-2.299-5.02-2.146-9.69.075-2.298.077-2.987.69-3.218 4.635-1.734 8.154-4.337 8.67-6.61.536-2.374-.154-4.058.536-4.288 1.82-.605-1.917-.689-1.816.077.637 4.76-2.25 5.742-6.034 7.784-2.72 1.467-5.062.432-4.228-2.357.834-2.787.322-7.749.386-8.696.076-1.149-1.969-1.531-1.814-.536.244 4.371-.23 8.874-1.42 11.223-1.436 2.837-2.564 3.063-3.306 3.035-2.638-.099-3.996-.449-5.396-2.247-1.049-1.346-1.501-2.768-1.294-3.822.111-.565-2.207-1.513-2.005.53.41 6.126 5.37 6.906 7.443 7.657 2.53.92 1.918 9.448 1.865 12.028-.06 3.068-1.584 3.801-3.631 3.394-5.753-.97-9.176-2.42-10.585-7.276.173-.693-1.692.33-1.645.358 1.138 7.325 9.816 8.585 11.615 8.986 1.02.225 3.53 1.888 3.53 3.114 0 1.225.103 1.463.103 1.463-.026 1.303-1.537 3.217-2.993 3.37-1.458.153-1.38 1.378-.076 1.226 1.302-.154 2.277-.076 3.043-1.073.766-.996 1.381-1.302 1.688-.689.306.613-.155 2.323-1.151 2.783-.997.459-.587 1.811.41 1.123.996-.689 1.356-.92 1.892-2.144.68-1.553 1.533-1.762 1.611-1.379.075.383-.308 3.829.23 3.829s1.15-.69.92-2.757c-.232-2.068 1.211-.905 1.764-.229 1.688 2.067 2.455 1.53 2.302.765-.154-.765-1.61-2.068-1.074-2.068s1.737 1.877 4.73 2.044c1.382.077 1.306-1.302-.076-1.38-1.38-.075-2.813-.51-3.427-2.808-.613-2.296-.537-5.777-.537-7.158 0-1.072.307-2.45 2.456-2.756 2.146-.307 12.349-.69 12.963-8.424-.076-1.072-2.147-.23-2.455 1.225"/>
        <path fill="#0089CE" d="M4.212 27.512L0 29.969v8.407h8.422V29.97z"/>
        <path fill="#F8B62D" d="M1.833 36.307H3.83v-1.993H1.833zM1.833 33.54H3.83v-1.993H1.833zM4.593 36.307h1.996v-1.993H4.593zM4.593 33.54h1.996v-1.993H4.593z"/>
        <path fill="#0089CE" d="M40.54 22.845l-4.21 2.457v8.408h8.42v-8.408z"/>
        <path fill="#F8B62D" d="M38.164 31.64h1.994v-1.992h-1.994zM38.164 28.873h1.994V26.88h-1.994zM40.922 31.64h1.996v-1.992h-1.996zM40.922 28.873h1.996V26.88h-1.996z"/>
        <path fill="#0089CE" d="M9.98 16.833h1.302v-2.585H9.98v2.585zm-1.8 0h1.302v-2.585H8.18v2.585zm1.55-6.895l-3.629 2.117V19.3h7.26v-7.246L9.73 9.938zM35.935 12.948h1.302v-2.586h-1.302v2.586zm-1.8 0h1.302v-2.586h-1.302v2.586zm1.551-6.897L32.057 8.17v7.246h7.259V8.169l-3.63-2.118zM22.869 0l-4.211 2.457v8.408h8.42V2.457z"/>
        <path fill="#F8B62D" d="M20.49 8.795h1.996V6.803H20.49zM20.49 6.028h1.996V4.036H20.49zM23.25 8.795h1.996V6.803H23.25zM23.25 6.028h1.996V4.036H23.25z"/>
    </g>
</svg>
