<svg id="Group_404" data-name="Group 404" xmlns="http://www.w3.org/2000/svg" viewBox="0 0 170.949 57.448">
  <defs>
    <style>
      .cls-1, .cls-2 {
        fill: #fff;
      }

      .cls-1, .cls-3 {
        fill-rule: evenodd;
      }

      .cls-3 {
        fill: #ffb548;
      }
    </style>
  </defs>
  <g id="Group_207" data-name="Group 207" transform="translate(49.587 11.449)">
    <path id="Path_38" data-name="Path 38" class="cls-1" d="M79.934,14.6h2.922L74.249,34.419H71.407L62.8,14.6h2.843l7.185,16.5Z" transform="translate(-62.8 -14.521)"/>
    <path id="Path_39" data-name="Path 39" class="cls-1" d="M94.585,14.6V34.419H91.9V14.6Z" transform="translate(-68.923 -14.521)"/>
    <path id="Path_40" data-name="Path 40" class="cls-1" d="M111.412,34.419H100.2V14.6h2.606V31.734h8.607Z" transform="translate(-70.669 -14.521)"/>
    <path id="Path_41" data-name="Path 41" class="cls-1" d="M129.591,34.419H118.3V14.6h2.685V31.734h8.607Z" transform="translate(-74.477 -14.521)"/>
    <path id="Path_42" data-name="Path 42" class="cls-1" d="M141.311,29.129l-2.29,5.29H136.1L144.707,14.6h2.843l8.607,19.819h-2.922l-2.211-5.29Zm8.528-2.685-3.711-8.528-3.711,8.528Z" transform="translate(-78.222 -14.521)"/>
    <path id="Path_43" data-name="Path 43" class="cls-1" d="M172.028,23.186h9.87c0,3.632-.948,6.4-2.922,8.291a9.913,9.913,0,0,1-14.055,0A9.48,9.48,0,0,1,162,24.449a9.48,9.48,0,0,1,2.922-7.027,9.913,9.913,0,0,1,14.055,0l-1.9,1.9a6.913,6.913,0,0,0-5.132-2.132,7.039,7.039,0,0,0-5.132,2.132,6.913,6.913,0,0,0-2.132,5.132,7.039,7.039,0,0,0,2.132,5.132,7.244,7.244,0,0,0,10.265,0,6.794,6.794,0,0,0,1.974-3.79h-7.106V23.186Z" transform="translate(-83.671 -14.5)"/>
    <path id="Path_44" data-name="Path 44" class="cls-1" d="M202.912,14.6v2.606h-8.607v6h6v2.606h-6v5.922h8.607v2.685H191.7V14.6Z" transform="translate(-89.92 -14.521)"/>
    <path id="Path_45" data-name="Path 45" class="cls-1" d="M69.806,45.4v8.607h8.607V45.4H81.1V65.219H78.412V56.612H69.806v8.607H67.2V45.4Z" transform="translate(-63.726 -21.001)"/>
    <path id="Path_46" data-name="Path 46" class="cls-1" d="M91.522,48.322A9.949,9.949,0,0,1,108.5,55.349a9.949,9.949,0,0,1-19.9,0,10.122,10.122,0,0,1,2.922-7.027Zm1.9,12.16a6.913,6.913,0,0,0,5.132,2.132,7.039,7.039,0,0,0,5.132-2.132,6.913,6.913,0,0,0,2.132-5.132,7.264,7.264,0,1,0-12.4,5.132Z" transform="translate(-68.228 -21.001)"/>
    <path id="Path_47" data-name="Path 47" class="cls-1" d="M120.285,45.4V57.955a4.792,4.792,0,0,0,1.342,3.316,4.472,4.472,0,0,0,3.237,1.342,4.792,4.792,0,0,0,3.316-1.342,4.523,4.523,0,0,0,1.342-3.316V45.4h2.606V57.955a7.258,7.258,0,0,1-12.4,5.132,6.913,6.913,0,0,1-2.132-5.132V45.4Z" transform="translate(-74.33 -21.001)"/>
    <path id="Path_48" data-name="Path 48" class="cls-1" d="M145.925,65.388a5.36,5.36,0,0,1-4.975-2.211l2.132-1.579a3.486,3.486,0,0,0,2.527,1.105,3.009,3.009,0,0,0,2.448-1.421,2.9,2.9,0,0,0,.237-2.29,2.839,2.839,0,0,0-1.421-1.737l-3.079-1.737a5.516,5.516,0,0,1-2.764-3.316,5.119,5.119,0,0,1,.474-4.264,5.291,5.291,0,0,1,4.58-2.843,5.535,5.535,0,0,1,4.975,2.211l-2.211,1.579a3.364,3.364,0,0,0-2.527-1.105,3.009,3.009,0,0,0-2.448,1.421,2.9,2.9,0,0,0-.237,2.29,2.839,2.839,0,0,0,1.421,1.737l3.079,1.737a5.516,5.516,0,0,1,2.764,3.316,5.119,5.119,0,0,1-.474,4.264,5.266,5.266,0,0,1-4.5,2.843Z" transform="translate(-79.203 -20.933)"/>
    <path id="Path_49" data-name="Path 49" class="cls-1" d="M170.412,45.4v2.685h-8.607v5.922h6v2.606h-6v6h8.607v2.606H159.2V45.4Z" transform="translate(-83.082 -21.001)"/>
    <path id="Path_50" data-name="Path 50" class="cls-2" d="M186.1,50.016a12.834,12.834,0,0,1-3.869,2.211v.948a.667.667,0,0,0,.158.474c.079.079.237.079.474.079h3.158v.948h-3.158a2.5,2.5,0,0,1-1.342-.237,1.763,1.763,0,0,1-.316-1.184V48.6h1.026V51.28a11.1,11.1,0,0,0,3.316-2.053Zm.474-1.184-.632.553a3.845,3.845,0,0,0-1.263-1.263l.553-.553A4.086,4.086,0,0,1,186.569,48.832Zm.869-.79-.553.553a6.381,6.381,0,0,0-1.263-1.263l.553-.632A5.115,5.115,0,0,1,187.438,48.042Z" transform="translate(-87.711 -21.275)"/>
    <path id="Path_51" data-name="Path 51" class="cls-2" d="M195.753,51.764a23.706,23.706,0,0,1-4.264,3.79l-.79-.395V49h.948v5.211a15.913,15.913,0,0,0,3.474-3.237Z" transform="translate(-89.71 -21.759)"/>
    <path id="Path_52" data-name="Path 52" class="cls-2" d="M200.837,52.479l-.632.632a3.466,3.466,0,0,0-1.105-1.263l.553-.632A2.62,2.62,0,0,1,200.837,52.479Zm3.632-.711A7.456,7.456,0,0,1,201,56.19l-.711-.553a7.6,7.6,0,0,0,3.316-4.5Zm-2.132.316-.632.632a3.031,3.031,0,0,0-1.026-1.184l.553-.632A2.322,2.322,0,0,1,202.337,52.084Z" transform="translate(-91.477 -22.158)"/>
    <path id="Path_53" data-name="Path 53" class="cls-2" d="M210.127,51.511l-.632.632a5.7,5.7,0,0,0-1.9-1.5l.474-.79A6.307,6.307,0,0,1,210.127,51.511Zm3.553-.158a10.316,10.316,0,0,1-2.053,2.369,8.791,8.791,0,0,1-2.685,1.5l-.632-.711a11.325,11.325,0,0,0,2.764-1.421,8.094,8.094,0,0,0,2.132-2.448ZM210.837,49.3l-.632.553a3.9,3.9,0,0,0-1.579-1.421l.553-.632A5.97,5.97,0,0,1,210.837,49.3Zm2.922.553-.553.553a4.133,4.133,0,0,0-1.263-1.342l.553-.553A3.445,3.445,0,0,1,213.759,49.853Zm.869-.711L214,49.7a4.133,4.133,0,0,0-1.263-1.342l.553-.553A3.145,3.145,0,0,1,214.627,49.142Z" transform="translate(-93.265 -21.506)"/>
    <g id="Group_206" data-name="Group 206" transform="translate(92.463 34.9)">
      <path id="Path_54" data-name="Path 54" class="cls-2" d="M182.743,61.274a8.8,8.8,0,0,1-.79,2.211,5.057,5.057,0,0,1-1.421,1.5l-.632-.632a3.189,3.189,0,0,0,1.184-1.342,5.733,5.733,0,0,0,.632-2.053Zm3.632,3.158-.79.474a8.285,8.285,0,0,0-.553-1.816,6.447,6.447,0,0,0-1.342-1.737l.632-.553A5.36,5.36,0,0,1,186.375,64.432Z" transform="translate(-179.9 -59.142)"/>
      <path id="Path_55" data-name="Path 55" class="cls-2" d="M195.4,59.963a7.135,7.135,0,0,1-.79,3.79,5.934,5.934,0,0,1-2.685,2.132l-.632-.711a4.447,4.447,0,0,0,2.211-1.658,4.627,4.627,0,0,0,.79-2.606h-3.948v1.816H189.4V59.963h2.527V58.7h.948v1.263Z" transform="translate(-181.899 -58.7)"/>
      <path id="Path_56" data-name="Path 56" class="cls-2" d="M204.48,64.89l-.711.711a13.156,13.156,0,0,0-1.816-1.816,9.156,9.156,0,0,1-3,2.132l-.553-.711a7.338,7.338,0,0,0,4.185-4.659h-3.316V59.6h3.79l.553.632a8.412,8.412,0,0,1-1.184,2.843A8.931,8.931,0,0,1,204.48,64.89Z" transform="translate(-183.792 -58.889)"/>
    </g>
  </g>
  <path id="Path_57" data-name="Path 57" class="cls-1" d="M30.43,19.926c.237-.237-5.685,8.528-3.237,16.424a17.969,17.969,0,0,0,1.737,5.527c.948,1.5,1.816,3.158,3.948,1.737,0,0,5.053-2.606,6.4-7.422l1.974-.237S40.3,40.219,38.563,41.8a5.445,5.445,0,0,0,4.264-1.5l.79.948a8.317,8.317,0,0,1-6.791,2.764s-2.132,1.816-3.553,2.922c-1.579,1.184-1.737,2.764-1.816,4.5a16.725,16.725,0,0,0,.079,3.553s.474,3.316,5.843,6.08c0,0-3.316,1.263-8.212-.948,0,0-8.844,2.132-14.055.948,0,0,7.185-1.9,7.817-5.685v-4.5A3.775,3.775,0,0,0,20.086,47.4S9.821,45.036,8.4,34.771l1.579-.079s.316,5.922,7.738,8.844a18.748,18.748,0,0,0,6.475,1.579s.869-.553.237-2.211c-.553-1.816-2.29-2.527-3.632-3.553-1.421-1.105-4.659-3.237-5.132-5.448l.869-.948a8.534,8.534,0,0,0,5.606,4.422c1.658.79,1.579-1.737,1.658-2.685.158-2.369.869-10.344,4.9-14.766L29.956,18.9c-.079,0,.237,1.263.474,1.026Z" transform="translate(-1.767 -3.976)"/>
  <path id="Path_58" data-name="Path 58" class="cls-1" d="M23.079,20.6a10.058,10.058,0,0,0,5.448,8.212l.79-2.527s-4.264-1.105-5.29-6.554L23,19.1l.079,1.5Z" transform="translate(-4.839 -4.019)"/>
  <path id="Path_59" data-name="Path 59" class="cls-1" d="M39.258,37.771h15.16l-.553-11.923L46.838,20.4,39.1,26.085Z" transform="translate(-8.226 -4.292)"/>
  <g id="Group_209" data-name="Group 209" transform="translate(34.822 23.293)">
    <g id="Group_208" data-name="Group 208">
      <path id="Path_60" data-name="Path 60" class="cls-3" d="M44.1,29.5h2.922v2.764H44.1Z" transform="translate(-44.1 -29.5)"/>
      <path id="Path_61" data-name="Path 61" class="cls-3" d="M49.5,29.5h2.922v2.764H49.5Z" transform="translate(-45.236 -29.5)"/>
      <path id="Path_62" data-name="Path 62" class="cls-3" d="M44.1,34.7h2.922v2.764H44.1Z" transform="translate(-44.1 -30.594)"/>
      <path id="Path_63" data-name="Path 63" class="cls-3" d="M49.5,34.7h2.922v2.764H49.5Z" transform="translate(-45.236 -30.594)"/>
    </g>
  </g>
  <path id="Path_64" data-name="Path 64" class="cls-1" d="M36.229,5.606,28.254,0,20.2,5.448l.237,12.239,15.871-.158Zm-8.765,8.765h-3V11.449h3Zm0-4.264h-3V7.185h3Zm4.5,4.264h-3V11.449h3Zm0-4.264h-3V7.185h3Z" transform="translate(-4.25)"/>
  <path id="Path_65" data-name="Path 65" class="cls-1" d="M.158,34.672H15.792V21.88L7.817,15.8,0,22.354Z" transform="translate(0 -3.324)"/>
  <g id="Group_211" data-name="Group 211" transform="translate(4.185 20.214)">
    <g id="Group_210" data-name="Group 210">
      <path id="Path_66" data-name="Path 66" class="cls-3" d="M5.3,25.6H8.222v2.843H5.3Z" transform="translate(-5.3 -25.6)"/>
      <path id="Path_67" data-name="Path 67" class="cls-3" d="M10.8,25.6h3v2.843h-3Z" transform="translate(-6.457 -25.6)"/>
      <path id="Path_68" data-name="Path 68" class="cls-3" d="M5.3,30.9H8.222v2.843H5.3Z" transform="translate(-5.3 -26.715)"/>
      <path id="Path_69" data-name="Path 69" class="cls-3" d="M10.8,30.9h3v2.843h-3Z" transform="translate(-6.457 -26.715)"/>
    </g>
  </g>
</svg>
