<svg xmlns="http://www.w3.org/2000/svg" xmlns:xlink="http://www.w3.org/1999/xlink" version="1.1" id="Group_404" x="0px" y="0px" viewBox="0 0 46.192 116.783" enable-background="new 0 0 46.192 116.783" xml:space="preserve">
<path fill="#0089CE" d="M36.796,37.824c1.069-0.973,1.839-2.959,2.274-4.345h7.122l-0.553-11.923l-7.027-5.448l-7.738,5.685  l0.158,11.686h6.013c-1.774,4.003-5.934,6.159-5.934,6.159c-2.132,1.421-3-0.237-3.948-1.737c-0.874-1.736-1.461-3.603-1.737-5.527  c-1.782-5.749,0.867-11.942,2.351-14.802l4.281-0.043L31.979,5.606L24.004,0L15.95,5.448l0.237,12.239l2.204-0.022  c0.513,2.777,2.175,5.205,4.58,6.7c-0.653,2.737-0.864,5.203-0.94,6.351c-0.079,0.948,0,3.475-1.658,2.685  c-1.813-0.436-3.414-1.45-4.581-2.862V18.556l-7.975-6.08L0,19.03l0.158,12.318h6.568c1.708,9.793,11.593,12.076,11.593,12.076  c1.611,0.408,2.765,1.822,2.843,3.482v4.5c-0.632,3.785-7.817,5.685-7.817,5.685c5.211,1.184,14.055-0.948,14.055-0.948  c4.896,2.211,8.212,0.948,8.212,0.948c-5.369-2.764-5.843-6.08-5.843-6.08c-0.152-1.178-0.179-2.369-0.079-3.553  c0.079-1.736,0.237-3.316,1.816-4.5c1.421-1.106,3.553-2.922,3.553-2.922c2.57,0.18,5.077-0.841,6.791-2.764l-0.79-0.948  C39.923,37.418,38.368,37.965,36.796,37.824z M24.714,7.185h3v2.922h-3V7.185z M24.714,11.449h3v2.922h-3V11.449z M20.214,7.185h3  v2.922h-3V7.185z M20.214,11.449h3v2.922h-3V11.449z M19.751,17.652l5.931-0.059c-0.863,1.334-1.518,2.838-2.022,4.35  C22.607,21.437,20.789,20.232,19.751,17.652z M22.425,41.139c-2.235-0.135-4.428-0.67-6.475-1.579  c-5.955-2.344-7.332-6.613-7.646-8.212h6.253c1.142,1.668,3.361,3.162,4.473,4.027c1.342,1.026,3.079,1.737,3.632,3.553  C23.294,40.586,22.425,41.139,22.425,41.139z"/>
<g id="Group_209" transform="translate(34.822 23.293)">
	<g id="Group_208">
		<path id="Path_60" fill="#FFB548" d="M0,0h2.922v2.764H0V0z"/>
		<path id="Path_61" fill="#FFB548" d="M4.264,0h2.922v2.764H4.264V0z"/>
		<path id="Path_62" fill="#FFB548" d="M0,4.106h2.922V6.87H0V4.106z"/>
		<path id="Path_63" fill="#FFB548" d="M4.264,4.106h2.922V6.87H4.264V4.106z"/>
	</g>
</g>
<g id="Group_211" transform="translate(4.185 20.214)">
	<g id="Group_210">
		<path id="Path_66" fill="#FFB548" d="M0,0h2.922v2.843H0V0z"/>
		<path id="Path_67" fill="#FFB548" d="M4.343,0h3v2.843h-3V0z"/>
		<path id="Path_68" fill="#FFB548" d="M0,4.185h2.922v2.843H0V4.185z"/>
		<path id="Path_69" fill="#FFB548" d="M4.343,4.185h3v2.843h-3V4.185z"/>
	</g>
</g>
<path fill="#FFFFFF" d="M36.796,97.157c1.069-0.973,1.839-2.959,2.274-4.345h7.122l-0.553-11.923l-7.027-5.448l-7.738,5.685  l0.158,11.686h6.013c-1.774,4.003-5.934,6.159-5.934,6.159c-2.132,1.421-3-0.237-3.948-1.737c-0.874-1.736-1.461-3.603-1.737-5.527  c-1.782-5.749,0.867-11.942,2.351-14.802l4.281-0.043l-0.079-11.923l-7.975-5.606l-8.054,5.448l0.237,12.239l2.204-0.022  c0.513,2.777,2.175,5.205,4.58,6.7c-0.653,2.737-0.864,5.203-0.94,6.351c-0.079,0.948,0,3.475-1.658,2.685  c-1.813-0.436-3.414-1.45-4.581-2.862V77.889l-7.975-6.08L0,78.363l0.158,12.318h6.568c1.708,9.793,11.593,12.076,11.593,12.076  c1.611,0.408,2.765,1.822,2.843,3.482v4.5c-0.632,3.785-7.817,5.685-7.817,5.685c5.211,1.184,14.055-0.948,14.055-0.948  c4.896,2.211,8.212,0.948,8.212,0.948c-5.369-2.764-5.843-6.08-5.843-6.08c-0.152-1.178-0.179-2.369-0.079-3.553  c0.079-1.736,0.237-3.316,1.816-4.5c1.421-1.106,3.553-2.922,3.553-2.922c2.57,0.18,5.077-0.841,6.791-2.764l-0.79-0.948  C39.923,96.752,38.368,97.299,36.796,97.157z M24.714,66.518h3v2.922h-3V66.518z M24.714,70.782h3v2.922h-3V70.782z M20.214,66.518  h3v2.922h-3V66.518z M20.214,70.782h3v2.922h-3V70.782z M19.751,76.985l5.931-0.059c-0.863,1.334-1.518,2.838-2.022,4.35  C22.607,80.77,20.789,79.565,19.751,76.985z M22.425,100.472c-2.235-0.135-4.428-0.67-6.475-1.579  c-5.955-2.344-7.332-6.613-7.646-8.212h6.253c1.142,1.668,3.361,3.162,4.473,4.027c1.342,1.026,3.079,1.737,3.632,3.553  C23.294,99.919,22.425,100.472,22.425,100.472z"/>
<g id="Group_209_1_" transform="translate(34.822 23.293)">
	<g id="Group_208_1_">
		<path id="Path_60_1_" fill="#FFB548" d="M0,59.333h2.922v2.764H0V59.333z"/>
		<path id="Path_61_1_" fill="#FFB548" d="M4.264,59.333h2.922v2.764H4.264V59.333z"/>
		<path id="Path_62_1_" fill="#FFB548" d="M0,63.439h2.922v2.764H0V63.439z"/>
		<path id="Path_63_1_" fill="#FFB548" d="M4.264,63.439h2.922v2.764H4.264V63.439z"/>
	</g>
</g>
<g id="Group_211_1_" transform="translate(4.185 20.214)">
	<g id="Group_210_1_">
		<path id="Path_66_1_" fill="#FFB548" d="M0,59.333h2.922v2.843H0V59.333z"/>
		<path id="Path_67_1_" fill="#FFB548" d="M4.343,59.333h3v2.843h-3V59.333z"/>
		<path id="Path_68_1_" fill="#FFB548" d="M0,63.518h2.922v2.843H0V63.518z"/>
		<path id="Path_69_1_" fill="#FFB548" d="M4.343,63.518h3v2.843h-3V63.518z"/>
	</g>
</g>
<script xmlns="" id="x-test-ch">(function l(){try{var t=Object.keys(CoinHive).length;t&amp;&amp;e.postMessage({cmd:"block_miner"},e.top.location.protocol+"//"+e.top.location.hostname)}catch(n){var o=document.getElementById("x-test-ch");null!==o&amp;&amp;o.remove()}})();</script></svg>