<?xml version="1.0" encoding="utf-8"?>
<!-- Generator: Adobe Illustrator 22.1.0, SVG Export Plug-In . SVG Version: 6.00 Build 0)  -->
<svg version="1.1" id="Layer_1" xmlns="http://www.w3.org/2000/svg" xmlns:xlink="http://www.w3.org/1999/xlink" x="0px" y="0px"
	 viewBox="0 0 312.6 118.7" style="enable-background:new 0 0 312.6 118.7;" xml:space="preserve">
<style type="text/css">
	.st0{fill:#1389CB;}
	.st1{fill:#F7B23A;}
</style>
<g>
	<g>
		<g>
			<path class="st0" d="M62.4,50.8v20.6h7.4c0,0.6,0,1.2-0.1,1.8c-0.6,2.4-2.2,5.2-9.3,9.3c-5.6,3.2-9-2.3-10.9-8.1
				c-2.2-6.4-2.6-13.3-1.4-19.9c0.7-4.3,2-9.8,4.3-13.9h9.2V12.4L46,3l-15.6,9.4v28.1h7.4c-0.3,3-0.3,8.7,4.1,11.3
				c0,0,1.6,0.7,0.9,3.1c-0.6,2.2-1.3,8.2-0.9,11.3s-1.3,4.1-8.5-1c0,0,0,0-0.1,0l-1.2-0.7c-0.1,0-0.2-0.1-0.2-0.1
				c-0.7-0.2-1.6,0.2-1.6,1c0.1,1.6,0.4,2.2,3.6,5.1c1.2,1.1,3.2,2.1,4.9,2.9c0.9,0.4,1.6,2.1,2.2,3.3c1.1,2.2,7.1,9.4-0.9,8.6
				c-7.5-0.8-20-6.6-24-19.3h9.5V45.6l-11.7-7l-11.7,7V66h10.4c0.9,4.6,4.9,16.6,23.5,24.3c0,0,4,1.1,4,7.1c0,8.2,2.1,9.8-4.3,12.5
				s-9.6,5-6.9,6.1c4.6,1.9,13.5,0,15.4-0.7c2.4-0.9,7.2-2.8,10.7-1.2c4.2,1.9,4.8,2.6,8.4,2.7c3.2,0.1,5-2.4-0.9-4.4
				c-6.6-2.2-7.2-6.7-6.7-12.9c0.4-6.2,3.7-10.2,5.8-12.4c2.8-3,6.3-5.2,9.1-4.9c3.2,0.3,5-0.2,6.4-1.3c1.5-1.2,3.8-2.4,2.9-3.6
				c-0.9-1.2-3.9,1-5.4,1.8c-1.2,0.7-3.6-0.2-2.8-2.3c0.7-2,0.9-1.4,1.5-4c0.1-0.5,0.2-1,0.2-1.3h12.4V50.9l-11.7-8.7L62.4,50.8z
				 M47.8,17.1h5.8v5.8h-5.8V17.1z M47.8,26.8h5.8v5.8h-5.8V26.8z M38.1,17.1h5.8v5.8h-5.8V17.1z M38.1,32.7v-5.8h5.8v5.8H38.1z
				 M40.9,40.4h7.2c-0.5,1.1-1.2,2.8-1.7,4.7C45.5,48.4,41.3,49.7,40.9,40.4z M12.8,60.1H7.9v-4.9h4.9V60.1z M12.8,53.3H7.9v-4.9
				h4.9V53.3z M14.7,48.4h4.9v4.9h-4.9V48.4z M14.7,55.2h4.9v4.9h-4.9V55.2z M73.1,65.5h-4.9v-4.9h4.9V65.5z M73.1,58.7h-4.9v-4.9
				h4.9V58.7z M75,53.8h4.9v4.9H75V53.8z M75,60.6h4.9v4.9H75V60.6z"/>
		</g>
	</g>
	<g>
		<path class="st0" d="M130.9,19.7H129c-0.6,0-1.1,0.3-1.3,0.9l-11.8,30.6h-0.1l-11.5-30.6c-0.2-0.5-0.7-0.9-1.3-0.9h-2.2
			c-0.9,0-1.6,0.9-1.3,1.8l13.6,35.6c0.2,0.5,0.7,0.9,1.3,0.9h2.5c0.6,0,1.1-0.3,1.3-0.9l13.9-35.5
			C132.5,20.7,131.8,19.7,130.9,19.7z"/>
	</g>
	<g>
		<path class="st0" d="M140.5,58h1.8c0.7,0,1.4-0.6,1.4-1.4V21.1c0-0.7-0.6-1.4-1.4-1.4h-1.8c-0.7,0-1.4,0.6-1.4,1.4v35.5
			C139.2,57.4,139.8,58,140.5,58z"/>
	</g>
	<g>
		<path class="st0" d="M174.9,53.8h-14.8c-0.7,0-1.4-0.6-1.4-1.4V21.1c0-0.7-0.6-1.4-1.4-1.4h-1.8c-0.7,0-1.4,0.6-1.4,1.4v35.5
			c0,0.7,0.6,1.4,1.4,1.4h19.3c0.7,0,1.4-0.6,1.4-1.4v-1.5C176.3,54.4,175.7,53.8,174.9,53.8z"/>
	</g>
	<g>
		<path class="st0" d="M182.9,58h19.3c0.7,0,1.4-0.6,1.4-1.4v-1.5c0-0.7-0.6-1.4-1.4-1.4h-14.8c-0.7,0-1.4-0.6-1.4-1.4V21.1
			c0-0.7-0.6-1.4-1.4-1.4h-1.8c-0.7,0-1.4,0.6-1.4,1.4v35.5C181.6,57.4,182.2,58,182.9,58z"/>
	</g>
	<g>
		<path class="st0" d="M241.2,58h2.4c1,0,1.6-1,1.2-1.9l-15.1-35.5c-0.2-0.5-0.7-0.8-1.2-0.8H226c-0.5,0-1,0.3-1.2,0.8l-15.7,35.6
			c-0.4,0.9,0.3,1.9,1.2,1.9h2.2c0.5,0,1-0.3,1.2-0.8l3.3-7.7c0.2-0.5,0.7-0.8,1.2-0.8h17.3c0.5,0,1,0.3,1.2,0.8l3.2,7.7
			C240.2,57.7,240.7,58,241.2,58z M232.7,44.4h-11.6c-1,0-1.6-1-1.2-1.9l7.2-16.9h0.1l6.8,16.9C234.3,43.4,233.7,44.4,232.7,44.4z"
			/>
	</g>
	<g>
		<path class="st0" d="M279.1,55c0.4-0.2,0.7-0.7,0.7-1.1V38.1c0-0.7-0.6-1.3-1.3-1.3h-10.1c-0.7,0-1.3,0.6-1.3,1.3v1.4
			c0,0.7,0.6,1.3,1.3,1.3h5.8c0.7,0,1.3,0.6,1.3,1.3v9.1c0,0.5-0.3,1-0.7,1.2c-1.1,0.5-2.4,0.9-3.7,1.2c-1.6,0.4-3.2,0.5-4.6,0.5
			c-2.2,0-4.3-0.4-6.1-1.1c-1.9-0.8-3.4-1.8-4.8-3.2c-1.3-1.4-2.3-3-3.1-4.8s-1.1-3.9-1.1-6c0-2.2,0.4-4.2,1.1-6.1s1.8-3.4,3.1-4.8
			c1.3-1.3,2.9-2.4,4.7-3.1c1.8-0.8,3.7-1.1,5.8-1.1c1.9,0,3.7,0.4,5.4,1.1c1.4,0.6,2.6,1.3,3.6,2.2c0.5,0.5,1.3,0.4,1.8-0.1
			l1.4-1.5c0.5-0.5,0.5-1.4-0.1-1.9c-1.5-1.3-3.1-2.2-4.9-2.8c-2.2-0.7-4.5-1.1-6.9-1.1c-2.7,0-5.3,0.5-7.7,1.4
			c-2.4,0.9-4.4,2.2-6.2,3.9c-1.8,1.7-3.2,3.7-4.2,6s-1.5,5-1.5,7.8s0.5,5.4,1.4,7.8c1,2.3,2.3,4.4,4,6c1.7,1.7,3.8,3,6.1,3.9
			c2.4,0.9,5,1.4,7.8,1.4c2.4,0,4.7-0.3,7-0.8C275.3,56.7,277.3,55.9,279.1,55z"/>
	</g>
	<g>
		<path class="st0" d="M308.8,53.8H291c-0.7,0-1.4-0.6-1.4-1.4V41.5c0-0.7,0.6-1.4,1.4-1.4h15.5c0.7,0,1.4-0.6,1.4-1.4v-1.5
			c0-0.7-0.6-1.4-1.4-1.4H291c-0.7,0-1.4-0.6-1.4-1.4v-9.3c0-0.7,0.6-1.4,1.4-1.4h17.7c0.7,0,1.4-0.6,1.4-1.4v-1.5
			c0-0.7-0.6-1.4-1.4-1.4h-22.3c-0.7,0-1.4,0.6-1.4,1.4v35.8c0,0.7,0.6,1.4,1.4,1.4h22.3c0.7,0,1.4-0.6,1.4-1.4v-1.5
			C310.1,54.4,309.5,53.8,308.8,53.8z"/>
	</g>
	<g>
		<path class="st0" d="M127.7,65.9h-1.6c-0.7,0-1.2,0.5-1.2,1.2v12c0,0.7-0.5,1.2-1.2,1.2H108c-0.7,0-1.2-0.5-1.2-1.2v-12
			c0-0.7-0.5-1.2-1.2-1.2H104c-0.7,0-1.2,0.5-1.2,1.2v31.6c0,0.7,0.5,1.2,1.2,1.2h1.6c0.7,0,1.2-0.5,1.2-1.2V85.3
			c0-0.7,0.5-1.2,1.2-1.2h15.7c0.7,0,1.2,0.5,1.2,1.2v13.4c0,0.7,0.5,1.2,1.2,1.2h1.6c0.7,0,1.2-0.5,1.2-1.2V67.1
			C128.9,66.5,128.4,65.9,127.7,65.9z"/>
	</g>
	<g>
		<path class="st0" d="M163.2,70.7c-1.5-1.5-3.3-2.7-5.3-3.5c-2.1-0.9-4.3-1.3-6.8-1.3s-4.7,0.4-6.8,1.3c-2.1,0.9-3.8,2-5.3,3.5
			s-2.7,3.3-3.5,5.4c-0.8,2.1-1.3,4.3-1.3,6.8c0,2.4,0.4,4.7,1.3,6.8c0.8,2.1,2,3.9,3.5,5.4s3.3,2.7,5.3,3.5
			c2.1,0.9,4.3,1.3,6.8,1.3s4.7-0.4,6.8-1.3c2.1-0.9,3.8-2,5.3-3.5s2.7-3.3,3.5-5.4c0.8-2.1,1.3-4.3,1.3-6.8c0-2.4-0.4-4.7-1.3-6.8
			C165.8,74,164.7,72.2,163.2,70.7z M162.9,88.1c-0.6,1.6-1.5,3.1-2.6,4.3s-2.5,2.2-4,2.9c-1.6,0.7-3.3,1.1-5.2,1.1
			s-3.6-0.3-5.2-1.1c-1.6-0.7-2.9-1.7-4-2.9s-2-2.6-2.6-4.3c-0.6-1.6-0.9-3.4-0.9-5.2c0-1.9,0.3-3.6,0.9-5.2c0.6-1.6,1.5-3,2.6-4.3
			c1.1-1.2,2.5-2.2,4-2.9c1.6-0.7,3.3-1,5.2-1s3.6,0.3,5.2,1c1.6,0.7,2.9,1.7,4,2.9s2,2.6,2.6,4.3c0.6,1.6,0.9,3.4,0.9,5.2
			C163.8,84.8,163.5,86.5,162.9,88.1z"/>
	</g>
	<g>
		<path class="st0" d="M197,65.9h-1.6c-0.6,0-1.2,0.5-1.2,1.2v18.8c0,1.3-0.1,2.6-0.4,3.9c-0.3,1.2-0.7,2.4-1.4,3.3
			c-0.7,1-1.5,1.7-2.6,2.3s-2.5,0.9-4.1,0.9c-1.7,0-3-0.3-4.1-0.9c-1.1-0.6-2-1.3-2.6-2.3c-0.7-1-1.1-2.1-1.4-3.3
			c-0.3-1.2-0.4-2.5-0.4-3.9V67.1c0-0.6-0.5-1.2-1.2-1.2h-1.6c-0.6,0-1.2,0.5-1.2,1.2v19.3c0,1.8,0.2,3.5,0.7,5.1s1.2,3,2.2,4.3
			c1,1.2,2.3,2.2,3.9,2.9c1.6,0.7,3.5,1.1,5.8,1.1s4.2-0.4,5.8-1.1s2.9-1.7,3.9-2.9s1.7-2.7,2.2-4.3s0.7-3.3,0.7-5.1V67.1
			C198.2,66.4,197.7,65.9,197,65.9z"/>
	</g>
	<g>
		<path class="st0" d="M221,83.9c-0.9-0.7-1.9-1.3-3.1-1.7c-1.2-0.5-2.4-0.9-3.6-1.3c-1.3-0.4-2.4-0.8-3.2-1.2
			c-0.9-0.4-1.6-0.8-2.1-1.3s-0.9-1-1.1-1.5c-0.2-0.6-0.3-1.2-0.3-1.9c0-0.9,0.2-1.8,0.6-2.5s0.9-1.3,1.6-1.7s1.4-0.7,2.2-1
			c0.8-0.2,1.7-0.3,2.5-0.3c1.2,0,2.3,0.2,3.3,0.7c0.7,0.3,1.3,0.8,1.9,1.3c0.4,0.5,1.1,0.5,1.6,0.1l1.3-1.2c0.5-0.4,0.5-1.2,0-1.7
			c-1-0.9-2-1.6-3.2-2c-1.5-0.6-3.2-0.8-5-0.8c-1.4,0-2.8,0.2-4.1,0.6c-1.3,0.4-2.5,1-3.5,1.8s-1.9,1.7-2.5,2.9s-0.9,2.5-0.9,4.1
			c0,1.3,0.2,2.5,0.6,3.4s1,1.8,1.7,2.5s1.6,1.3,2.5,1.7c1,0.5,2,0.9,3.2,1.3c1.4,0.5,2.7,0.9,3.7,1.3c1.1,0.4,1.9,0.8,2.6,1.2
			c0.7,0.5,1.2,1,1.6,1.6c0.3,0.6,0.5,1.4,0.5,2.4c0,0.9-0.2,1.7-0.6,2.4s-1,1.3-1.6,1.8c-0.7,0.5-1.4,0.8-2.3,1.1
			c-0.8,0.2-1.7,0.4-2.5,0.4c-1.4,0-2.7-0.3-4-0.9c-0.9-0.4-1.6-1-2.3-1.7c-0.4-0.5-1.1-0.6-1.6-0.2l-1.5,1.2
			c-0.5,0.4-0.6,1.1-0.2,1.6c0.4,0.4,0.8,0.8,1.3,1.2c0.8,0.6,1.6,1,2.4,1.4c0.9,0.3,1.8,0.6,2.7,0.8c0.9,0.2,1.9,0.3,2.8,0.3
			c1.5,0,2.9-0.2,4.2-0.6c1.4-0.4,2.6-1,3.6-1.7c1-0.8,1.9-1.8,2.5-2.9c0.6-1.2,1-2.6,1-4.2c0-1.6-0.3-2.9-0.8-3.9
			C222.6,85.4,221.9,84.6,221,83.9z"/>
	</g>
	<g>
		<path class="st0" d="M250.2,96.1h-15.8c-0.7,0-1.2-0.5-1.2-1.2v-9.7c0-0.7,0.5-1.2,1.2-1.2h13.8c0.7,0,1.2-0.5,1.2-1.2v-1.3
			c0-0.7-0.5-1.2-1.2-1.2h-13.8c-0.7,0-1.2-0.5-1.2-1.2v-8.2c0-0.7,0.5-1.2,1.2-1.2h15.8c0.7,0,1.2-0.5,1.2-1.2v-1.3
			c0-0.7-0.5-1.2-1.2-1.2h-19.8c-0.7,0-1.2,0.5-1.2,1.2v31.6c0,0.7,0.5,1.2,1.2,1.2h19.8c0.7,0,1.2-0.5,1.2-1.2v-1.3
			C251.4,96.7,250.9,96.1,250.2,96.1z"/>
	</g>
	<g>
		<path class="st0" d="M274.6,78.2c0,0.1-0.1,0.2-0.2,0.2h-5.8c-1,0-1.7-0.3-2.2-0.8c-0.4-0.5-0.7-1.4-0.7-2.5v-8.8
			c0-0.1,0.1-0.2,0.2-0.2h1.6c0.1,0,0.2,0.1,0.2,0.2v3.6c0,0.1,0.1,0.2,0.3,0.2c2.4-0.6,4.1-1.3,5.4-2c0.1-0.1,0.2,0,0.3,0.1
			l0.7,1.4c0,0.1,0,0.2-0.1,0.3c-0.6,0.3-1.4,0.7-2.7,1.1c-1.3,0.5-2.5,0.8-3.7,1c-0.1,0-0.2,0.1-0.2,0.2v2.9c0,0.5,0.1,0.8,0.2,1
			c0.2,0.2,0.5,0.3,1,0.3h5.3c0.1,0,0.2,0.1,0.2,0.2v1.6H274.6z M273,67.6l-0.6,0.2c-0.1,0-0.2,0-0.3-0.1c-0.2-0.6-0.5-1.2-0.8-1.8
			c-0.1-0.1,0-0.2,0.1-0.3l0.6-0.2c0.1,0,0.2,0,0.3,0.1c0.4,0.7,0.6,1.3,0.9,1.8C273.1,67.4,273.1,67.6,273,67.6z M275.1,67.4
			l-0.6,0.2c-0.1,0-0.2,0-0.3-0.1c-0.3-0.7-0.6-1.3-0.8-1.8c-0.1-0.1,0-0.2,0.1-0.3l0.6-0.2c0.1,0,0.2,0,0.3,0.1
			c0.3,0.5,0.6,1.1,0.8,1.8C275.3,67.2,275.2,67.3,275.1,67.4z"/>
		<path class="st0" d="M286.9,71.6c0.1,0.1,0.1,0.2,0.1,0.3c-0.8,1.6-2,2.9-3.5,4.2c-1.5,1.2-3.2,2.1-5.1,2.7c-0.1,0-0.1,0-0.2,0
			l-0.8-0.7c0,0-0.1-0.1-0.1-0.2V66.6c0-0.1,0.1-0.2,0.2-0.2h1.7c0.1,0,0.2,0.1,0.2,0.2v9.3c0,0.2,0.2,0.3,0.3,0.2
			c0.9-0.4,1.9-1.1,2.9-2s1.9-2.1,2.7-3.4c0.1-0.1,0.2-0.1,0.3-0.1L286.9,71.6z"/>
		<path class="st0" d="M290.9,73.7l-1.3,0.4c-0.1,0-0.2,0-0.3-0.1c-0.3-1.4-0.8-2.8-1.4-4.3c0-0.1,0-0.2,0.1-0.3l1.2-0.5
			c0.1,0,0.2,0,0.3,0.1c0.2,0.5,0.4,0.9,0.6,1.4s0.5,1.5,1,3C291.1,73.6,291,73.7,290.9,73.7z M296.8,68.7c0.1,0,0.2,0.1,0.2,0.2
			c-0.2,2.9-0.9,5.2-2,6.8s-2.7,2.6-4.9,3c-0.1,0-0.2,0-0.2-0.1l-0.5-1.1c-0.1-0.1,0-0.3,0.1-0.3c1.8-0.4,3.1-1.2,4-2.6
			c0.9-1.4,1.5-3.3,1.7-5.9c0-0.1,0.1-0.2,0.2-0.2L296.8,68.7z M293.7,73l-1.2,0.5c-0.1,0-0.2,0-0.3-0.1c-0.3-1.4-0.8-2.8-1.4-4.4
			c0-0.1,0-0.2,0.1-0.3l1.1-0.5c0.1,0,0.2,0,0.3,0.1c0.3,0.7,0.6,1.3,0.7,1.7s0.4,1.3,0.9,2.8C293.8,72.9,293.8,73,293.7,73z"/>
		<path class="st0" d="M304.3,71.9l-0.6,1.4c0,0.1-0.2,0.2-0.3,0.1c-0.8-0.4-1.4-0.7-1.9-0.9s-1.4-0.5-2.6-1c-0.1,0-0.2-0.2-0.1-0.3
			l0.5-1.3c0-0.1,0.1-0.2,0.2-0.1c0.7,0.2,1.4,0.4,2,0.7c0.6,0.2,1.5,0.6,2.6,1.2C304.3,71.7,304.4,71.8,304.3,71.9z M309.4,71.1
			c0.1,0.1,0.1,0.2,0.1,0.3c-1,2.2-2.2,3.9-3.8,5.1c-1.6,1.2-3.4,1.9-5.6,2.2c-0.1,0-0.2,0-0.2-0.1l-0.5-1.5c0-0.1,0-0.2,0.2-0.3
			c1.8-0.3,3.4-0.9,4.7-1.8c1.3-0.9,2.5-2.4,3.5-4.4c0.1-0.1,0.2-0.2,0.3-0.1L309.4,71.1z M305.4,68.4l-0.6,1.4
			c0,0.1-0.2,0.2-0.3,0.1c-0.4-0.2-0.7-0.4-1.1-0.6c-0.4-0.2-0.8-0.4-1.1-0.5l-2.2-0.9c-0.1,0-0.2-0.2-0.1-0.3l0.5-1.3
			c0-0.1,0.1-0.2,0.2-0.1c1.2,0.3,2.7,1,4.6,1.9C305.4,68.1,305.5,68.3,305.4,68.4z M307.4,68.9l-0.6,0.2c-0.1,0-0.2,0-0.3-0.1
			c-0.2-0.6-0.5-1.2-0.8-1.8c-0.1-0.1,0-0.2,0.1-0.3l0.6-0.2c0.1,0,0.2,0,0.3,0.1c0.4,0.7,0.6,1.3,0.9,1.8
			C307.5,68.7,307.5,68.8,307.4,68.9z M309.5,68.7l-0.6,0.2c-0.1,0-0.2,0-0.3-0.1c-0.3-0.7-0.6-1.3-0.8-1.8c-0.1-0.1,0-0.2,0.1-0.3
			l0.6-0.2c0.1,0,0.2,0,0.3,0.1c0.3,0.5,0.6,1.1,0.8,1.8C309.7,68.5,309.7,68.6,309.5,68.7z"/>
		<path class="st0" d="M270,84.2c0.1,0,0.2,0.1,0.2,0.2c0,2.2-0.2,3.9-0.4,5.1c-0.2,1.3-0.6,2.5-1.2,3.7c-0.5,1.1-1.2,2.2-2,3.1
			c-0.1,0.1-0.2,0.1-0.3,0l-1.4-1.1c-0.1-0.1-0.1-0.2,0-0.3c0.7-0.8,1.3-1.6,1.6-2.3c0.4-0.8,0.7-1.8,1-2.9c0.3-1.1,0.4-2.9,0.5-5.3
			c0-0.1,0.1-0.2,0.2-0.2H270z M277,95l-1.5,1.2c-0.1,0.1-0.2,0.1-0.3,0c-0.8-1.1-1.5-2.3-1.9-3.6c-0.5-1.3-0.8-2.8-1-4.3
			c-0.2-1.4-0.3-2.7-0.3-4c0-0.1,0.1-0.2,0.2-0.2h1.9v0.3c0,2,0.2,3.9,0.6,5.6c0.4,1.6,1.2,3.2,2.3,4.8
			C277.1,94.8,277.1,94.9,277,95z"/>
		<path class="st0" d="M288.7,86.6c0,3.5-0.7,6-1.9,7.4c-1.2,1.4-3.1,2.3-5.8,2.6c-0.1,0-0.2-0.1-0.2-0.2l-0.3-1.5
			c0-0.1,0.1-0.2,0.2-0.2c1.3-0.2,2.3-0.5,2.9-0.8c0.7-0.3,1.2-0.7,1.7-1.3c0.4-0.5,0.7-1,0.9-1.4c0.2-0.4,0.3-1,0.4-1.7
			s0.1-1.4,0.1-2.1c0-0.1-0.1-0.2-0.2-0.2H281c-0.1,0-0.2,0.1-0.2,0.2v3.5c0,0.1-0.1,0.2-0.2,0.2H279c-0.1,0-0.2-0.1-0.2-0.2v-5.3
			c0-0.1,0.1-0.2,0.2-0.2h3.5c0.1,0,0.2-0.1,0.2-0.2v-1.4c0-0.1,0.1-0.2,0.2-0.2h1.6c0.1,0,0.2,0.1,0.2,0.2v1.4
			c0,0.1,0.1,0.2,0.2,0.2h3.6c0.1,0,0.2,0.1,0.2,0.2L288.7,86.6L288.7,86.6z"/>
		<path class="st0" d="M301.8,95.2l-1.3,1.3c-0.1,0.1-0.2,0.1-0.3,0c-0.6-0.9-1.8-2.3-3.4-4.2c-0.1-0.1-0.2-0.1-0.3,0
			c-1.6,1.9-3.2,3.4-4.8,4.3c-0.1,0.1-0.2,0-0.3-0.1l-1-1.4c-0.1-0.1,0-0.2,0.1-0.3c1.5-0.9,2.9-2.1,4.2-3.5c1.2-1.4,2.1-3,2.7-4.7
			c0-0.1-0.1-0.3-0.2-0.3H292c-0.1,0-0.2-0.1-0.2-0.2v-1.5c0-0.1,0.1-0.2,0.2-0.2h7.3c0.1,0,0.1,0,0.2,0.1l0.4,0.4
			c0,0,0.1,0.1,0,0.2c-0.3,1.2-0.5,2.2-0.8,2.9s-0.7,1.5-1.1,2.3c0,0.1,0,0.2,0,0.2c1.5,1.6,2.8,3,3.9,4.3
			C301.9,95,301.9,95.1,301.8,95.2z"/>
	</g>
</g>
<g>
	<rect x="7.9" y="55.2" class="st1" width="4.9" height="4.9"/>
	<rect x="7.9" y="48.4" class="st1" width="4.9" height="4.9"/>
	<rect x="14.7" y="48.4" class="st1" width="4.9" height="4.9"/>
	<rect x="14.7" y="55.2" class="st1" width="4.9" height="4.9"/>
	<rect x="68.2" y="60.6" class="st1" width="4.9" height="4.9"/>
	<rect x="68.2" y="53.8" class="st1" width="4.9" height="4.9"/>
	<rect x="75" y="53.8" class="st1" width="4.9" height="4.9"/>
	<rect x="75" y="60.6" class="st1" width="4.9" height="4.9"/>
</g>
</svg>
