<?xml version="1.0" encoding="UTF-8"?>
<svg width="160px" height="60px" viewBox="0 0 160 60" version="1.1" xmlns="http://www.w3.org/2000/svg" xmlns:xlink="http://www.w3.org/1999/xlink">
    <!-- Generator: Sketch 47.1 (45422) - http://www.bohemiancoding.com/sketch -->
    <title>VH-Logo-Footer</title>
    <desc>Created with Sketch.</desc>
    <defs></defs>
    <g id="Page-1" stroke="none" stroke-width="1" fill="none" fill-rule="evenodd">
        <g id="VH-Logo-Footer" fill-rule="nonzero">
            <rect id="Rectangle-path" fill="#F7B52B" x="2.5" y="24" width="7" height="7"></rect>
            <rect id="Rectangle-path" fill="#F7B52B" x="33.8" y="26.5" width="7.3" height="7.3"></rect>
            <path d="M31.3,25.7 L31.3,36.4 L35.1,36.4 C35.1,36.7 35.1,37 35,37.3 C34.7,38.6 33.8,40 30.1,42.1 C27.2,43.8 25.4,40.9 24.4,37.9 C23.3,34.6 23.1,31 23.7,27.5 C24.1,25.3 24.7,22.4 25.9,20.3 L30.7,20.3 L30.7,5.7 L22.6,0.8 L14.5,5.7 L14.5,20.3 L18.3,20.3 C18.1,21.8 18.2,24.8 20.4,26.2 C20.4,26.2 21.2,26.6 20.9,27.8 C20.6,29 20.2,32.1 20.4,33.7 C20.6,35.3 19.7,35.8 16,33.2 C16,33.2 16,33.2 16,33.2 L15.4,32.8 C15.4,32.8 15.3,32.8 15.3,32.7 C14.9,32.6 14.5,32.8 14.5,33.2 C14.6,34 14.7,34.3 16.4,35.8 C17,36.4 18.1,36.9 19,37.3 C19.5,37.5 19.8,38.4 20.1,39 C20.7,40.2 23.8,43.9 19.6,43.4 C15.7,43 9.2,40 7.1,33.4 L12,33.4 L12,23 L5.9,19.4 L0,23 L0,33.6 L5.4,33.6 C5.9,36 8,42.2 17.6,46.2 C17.6,46.2 19.7,46.8 19.7,49.9 C19.7,54.2 20.8,55 17.5,56.4 C14.2,57.8 12.5,59 13.9,59.6 C16.3,60.6 20.9,59.6 21.9,59.2 C23.1,58.7 25.7,57.7 27.5,58.6 C29.7,59.6 30,59.9 31.9,60 C33.5,60 34.5,58.7 31.4,57.7 C28,56.6 27.7,54.2 27.9,51 C28.1,47.8 29.8,45.7 30.9,44.5 C32.3,42.9 34.2,41.8 35.6,42 C37.3,42.2 38.2,41.9 38.9,41.3 C39.7,40.7 40.9,40 40.4,39.5 C39.9,38.9 38.4,40 37.6,40.4 C37,40.7 35.7,40.3 36.1,39.2 C36.5,38.1 36.6,38.5 36.9,37.1 C37,36.8 37,36.6 37,36.4 L43.4,36.4 L43.4,25.7 L37.3,21.2 L31.3,25.7 Z M5.6,30.5 L3,30.5 L3,28 L5.5,28 L5.5,30.5 L5.6,30.5 Z M5.6,27 L3,27 L3,24.5 L5.5,24.5 L5.5,27 L5.6,27 Z M6.6,24.4 L9.1,24.4 L9.1,27 L6.6,27 L6.6,24.4 Z M6.6,28 L9.1,28 L9.1,30.5 L6.6,30.5 L6.6,28 Z M23.8,8.2 L26.8,8.2 L26.8,11.2 L23.8,11.2 L23.8,8.2 Z M23.8,13.2 L26.8,13.2 L26.8,16.2 L23.8,16.2 L23.8,13.2 Z M18.7,8.2 L21.7,8.2 L21.7,11.2 L18.7,11.2 L18.7,8.2 Z M18.7,16.3 L18.7,13.3 L21.7,13.3 L21.7,16.3 L18.7,16.3 Z M20.2,20.3 L23.9,20.3 C23.6,20.9 23.3,21.7 23,22.7 C22.6,24.4 20.4,25.1 20.2,20.3 Z M36.9,33.3 L34.4,33.3 L34.4,30.8 L36.9,30.8 L36.9,33.3 Z M36.9,29.8 L34.4,29.8 L34.4,27.3 L36.9,27.3 L36.9,29.8 Z M37.9,27.2 L40.4,27.2 L40.4,29.7 L37.9,29.7 L37.9,27.2 Z M37.9,30.8 L40.4,30.8 L40.4,33.3 L37.9,33.3 L37.9,30.8 Z M66.9,9.5 C67.4,9.5 67.7,10 67.6,10.6 L60.4,29.1 C60.2,29.3 60,29.5 59.7,29.5 L58.4,29.5 C58.1,29.5 57.8,29.3 57.7,29 L50.5,10.5 C50.4,10 50.7,9.5 51.2,9.5 L52.4,9.5 C52.7,9.5 53,9.7 53.1,10 L59,25.8 L59.1,25.8 L65.2,9.9 C65.4,9.7 65.6,9.5 65.9,9.5 L66.9,9.5 Z M71.9,29.4 C71.5,29.4 71.2,29.1 71.2,28.7 L71.2,10.2 C71.2,9.8 71.5,9.5 71.9,9.5 L72.9,9.5 C73.3,9.5 73.6,9.8 73.6,10.2 L73.6,28.7 C73.6,29.1 73.3,29.4 72.9,29.4 L71.9,29.4 Z M89.8,27.2 C90.2,27.2 90.5,27.5 90.4,27.9 L90.4,28.7 C90.4,29.1 90.1,29.4 89.7,29.4 L79.7,29.4 C79.3,29.4 79,29.1 79,28.7 L79,10.2 C79,9.8 79.3,9.5 79.7,9.5 L80.7,9.5 C81.1,9.5 81.4,9.8 81.4,10.2 L81.4,26.5 C81.4,26.9 81.7,27.2 82.1,27.2 L89.8,27.2 Z M93.9,29.4 C93.6,29.4 93.2,29.1 93.1,28.7 L93.1,10.2 C93.1,9.8 93.4,9.5 93.8,9.5 L94.8,9.5 C95.2,9.5 95.5,9.8 95.5,10.2 L95.5,26.5 C95.5,26.9 95.8,27.2 96.2,27.2 L103.9,27.2 C104.3,27.2 104.6,27.5 104.6,27.9 L104.6,28.7 C104.6,29.1 104.3,29.4 103.9,29.4 L93.9,29.4 Z M124.2,29.4 C123.9,29.4 123.7,29.2 123.5,29.1 L121.8,25.1 C121.7,24.9 121.5,24.7 121.2,24.7 L112.2,24.7 C112,24.7 111.7,24.8 111.6,25.1 L109.9,29.1 C109.8,29.3 109.6,29.5 109.3,29.5 L108.2,29.5 C107.7,29.5 107.4,29 107.6,28.5 L115.7,10 C115.8,9.8 116,9.6 116.3,9.6 L117.6,9.6 C117.8,9.6 118.1,9.7 118.2,10 L126,28.4 C126.2,28.9 125.9,29.4 125.4,29.4 L124.2,29.4 Z M119.8,22.3 C120.3,22.3 120.6,21.8 120.5,21.3 L117,12.5 L116.9,12.5 L113.2,21.3 C113,21.8 113.3,22.3 113.8,22.3 L119.8,22.3 Z M143.9,27.8 C142.9,28.3 141.9,28.7 140.5,28.9 C139.3,29.2 138.1,29.3 136.9,29.3 C135.4,29.3 134,29.1 132.8,28.6 C131.6,28.1 130.5,27.5 129.6,26.6 C128.7,25.8 128,24.7 127.5,23.5 C127,22.3 126.8,21 126.8,19.5 C126.8,18 127.1,16.6 127.6,15.4 C128.1,14.2 128.9,13.2 129.8,12.3 C130.7,11.5 131.8,10.8 133,10.3 C134.2,9.8 135.6,9.6 137,9.6 C138.3,9.6 139.5,9.8 140.6,10.2 C141.6,10.5 142.4,10.9 143.2,11.6 C143.5,11.9 143.6,12.3 143.3,12.6 L142.6,13.4 C142.4,13.6 142,13.6 141.7,13.4 C141.1,12.9 140.5,12.5 139.8,12.2 C138.9,11.8 138,11.6 137,11.6 C135.9,11.6 134.9,11.8 134,12.2 C133.1,12.6 132.3,13.1 131.6,13.8 C130.9,14.5 130.4,15.3 130,16.3 C129.6,17.3 129.4,18.4 129.4,19.5 C129.4,20.6 129.6,21.6 130,22.6 C130.4,23.6 130.9,24.4 131.6,25.1 C132.3,25.8 133.1,26.3 134.1,26.7 C135.1,27.1 136.1,27.3 137.3,27.3 C138.1,27.3 138.9,27.2 139.7,27 C140.4,26.9 141,26.7 141.6,26.4 C141.9,26.3 142,26.1 142,25.8 L142,21.1 C142,20.7 141.7,20.4 141.3,20.4 L138.3,20.4 C137.9,20.4 137.6,20.1 137.6,19.7 L137.6,19 C137.6,18.6 137.9,18.3 138.3,18.3 L143.6,18.3 C144,18.3 144.3,18.6 144.3,19 L144.3,27.2 C144.3,27.5 144.1,27.7 143.9,27.8 Z M159.3,27.2 C159.7,27.2 160,27.5 160,27.9 L160,28.7 C160,29.1 159.7,29.4 159.3,29.4 L147.7,29.4 C147.3,29.4 147,29.1 147,28.7 L147,10.2 C147,9.8 147.3,9.5 147.7,9.5 L159.3,9.5 C159.7,9.5 160,9.8 160,10.2 L160,11 C160,11.4 159.7,11.7 159.3,11.7 L150.1,11.7 C149.7,11.7 149.4,12 149.4,12.4 L149.4,17.2 C149.4,17.6 149.7,17.9 150.1,17.9 L158.2,17.9 C158.6,17.9 158.9,18.2 158.9,18.6 L158.9,19.4 C158.9,19.8 158.6,20.1 158.2,20.1 L150.1,20.1 C149.7,20.1 149.4,20.4 149.4,20.8 L149.4,26.5 C149.4,26.9 149.7,27.2 150.1,27.2 L159.3,27.2 Z M65.3,33.5 C65.6,33.5 65.9,33.8 65.8,34.1 L65.8,50.5 C65.8,50.8 65.5,51.1 65.2,51.1 L64.4,51.1 C64.1,51.1 63.8,50.8 63.8,50.5 L63.8,43.5 C63.8,43.2 63.5,42.9 63.2,42.9 L55,42.9 C54.7,42.9 54.4,43.2 54.4,43.5 L54.4,50.5 C54.4,50.8 54.1,51.1 53.8,51.1 L53,51.1 C52.7,51.1 52.4,50.8 52.4,50.5 L52.4,34.1 C52.4,33.8 52.7,33.5 53,33.5 L53.8,33.5 C54.1,33.5 54.4,33.8 54.4,34.1 L54.4,40.3 C54.4,40.6 54.7,40.9 55,40.9 L63.3,40.9 C63.6,40.9 63.9,40.6 63.9,40.3 L63.9,34.1 C63.9,33.8 64.2,33.5 64.5,33.5 L65.3,33.5 Z M83.7,36 C84.4,36.8 85.1,37.7 85.5,38.8 C86,39.9 86.2,41 86.2,42.3 C86.2,43.5 85.9,44.7 85.5,45.8 C85.1,46.9 84.5,47.8 83.7,48.6 C82.9,49.3 82,50 80.9,50.4 C79.9,50.9 78.7,51.1 77.4,51.1 C76.1,51.1 75,50.8 73.9,50.4 C72.8,50 71.9,49.4 71.1,48.6 C70.3,47.8 69.7,46.9 69.3,45.8 C68.8,44.7 68.6,43.6 68.6,42.3 C68.6,41.1 68.9,39.9 69.3,38.8 C69.7,37.7 70.3,36.8 71.1,36 C71.9,35.3 72.8,34.6 73.9,34.2 C74.9,33.7 76.1,33.5 77.4,33.5 C78.7,33.5 79.8,33.8 80.9,34.2 C82,34.6 82.9,35.2 83.7,36 Z M83.5,45.1 C83.8,44.2 84,43.3 84,42.4 C84,41.5 83.8,40.5 83.5,39.7 C83.1,38.9 82.7,38.1 82.1,37.5 C81.5,36.9 80.8,36.4 80,36 C79.2,35.7 78.3,35.5 77.3,35.5 C76.3,35.5 75.4,35.6 74.6,36 C73.8,36.4 73.1,36.9 72.5,37.5 C71.9,38.1 71.4,38.9 71.1,39.7 C70.8,40.5 70.6,41.4 70.6,42.4 C70.6,43.4 70.8,44.3 71.1,45.1 C71.5,45.9 71.9,46.7 72.5,47.3 C73.1,47.9 73.8,48.4 74.6,48.8 C75.4,49.1 76.3,49.3 77.3,49.3 C78.3,49.3 79.2,49.2 80,48.8 C80.8,48.4 81.5,47.9 82.1,47.3 C82.7,46.7 83.2,45.9 83.5,45.1 Z M101.3,33.5 C101.6,33.5 101.9,33.8 102.1,34.1 L102.1,44.1 C102.1,45.1 101.9,46 101.7,46.8 C101.5,47.6 101.1,48.4 100.6,49 C100.1,49.6 99.4,50.1 98.6,50.5 C97.8,50.9 96.8,51.1 95.6,51.1 C94.4,51.1 93.4,50.9 92.6,50.5 C91.8,50.2 91.1,49.6 90.6,49 C90.1,48.4 89.8,47.7 89.5,46.8 C89.2,45.9 89.1,45 89.1,44.1 L89.1,34.1 C89.1,33.8 89.4,33.5 89.7,33.5 L90.5,33.5 C90.8,33.5 91.1,33.8 91.1,34.1 L91.1,43.8 C91.1,44.5 91.2,45.2 91.3,45.8 C91.4,46.4 91.7,47 92,47.5 C92.4,48 92.8,48.4 93.4,48.7 C93.9,49 94.6,49.1 95.5,49.1 C96.3,49.1 97,49 97.6,48.7 C98.2,48.4 98.7,48 99,47.5 C99.3,47 99.6,46.4 99.7,45.8 C99.8,45.2 99.9,44.5 99.9,43.8 L99.9,34.1 C99.9,33.8 100.2,33.5 100.5,33.5 L101.3,33.5 Z M113.7,42.8 C114.2,43.2 114.5,43.7 114.6,44 C114.9,44.6 115,45.3 115,46.1 C115,47 114.8,47.7 114.5,48.3 C114.2,48.9 113.7,49.4 113.2,49.8 C112.6,50.2 112,50.5 111.3,50.7 C110.6,50.9 109.9,51 109.1,51 C108.6,51 108.1,51 107.6,50.9 C107.1,50.8 106.7,50.7 106.2,50.5 C105.7,50.3 105.3,50.1 104.9,49.8 C104.6,49.6 104.4,49.4 104.2,49.2 C104,49 104,48.6 104.3,48.4 L105.1,47.8 C105.3,47.6 105.7,47.6 105.9,47.9 C106.2,48.3 106.6,48.6 107.1,48.8 C107.8,49.1 108.5,49.3 109.2,49.3 C109.6,49.3 110.1,49.2 110.5,49.1 C111,48.9 111.4,48.7 111.7,48.5 C112.1,48.3 112.4,48 112.6,47.6 C112.8,47.2 112.9,46.8 112.9,46.3 C112.9,45.7 112.8,45.3 112.6,45 C112.4,44.7 112.2,44.4 111.8,44.2 C111.4,44 111,43.8 110.4,43.6 C109.9,43.4 109.2,43.2 108.5,42.9 C107.9,42.7 107.3,42.4 106.8,42.2 C106.3,42 105.9,41.7 105.5,41.3 C105.1,40.9 104.8,40.5 104.6,40 C104.4,39.5 104.3,38.9 104.3,38.2 C104.3,37.4 104.5,36.7 104.8,36.1 C105.1,35.5 105.6,35 106.1,34.6 C106.6,34.2 107.2,33.9 107.9,33.7 C108.5,33.5 109.3,33.4 110,33.4 C111,33.4 111.8,33.5 112.6,33.8 C113.2,34.1 113.8,34.4 114.3,34.9 C114.6,35.2 114.6,35.6 114.3,35.8 L113.6,36.4 C113.4,36.6 113,36.5 112.8,36.3 C112.5,36 112.2,35.8 111.8,35.6 C111.3,35.3 110.7,35.2 110.1,35.2 C109.7,35.2 109.2,35.3 108.8,35.4 C108.4,35.5 108,35.7 107.7,35.9 C107.4,36.1 107.1,36.4 106.9,36.8 C106.7,37.2 106.6,37.6 106.6,38.1 C106.6,38.5 106.7,38.8 106.8,39.1 C106.9,39.4 107.1,39.7 107.4,39.9 C107.7,40.2 108,40.4 108.5,40.6 C109,40.8 109.5,41 110.2,41.2 C110.9,41.4 111.5,41.7 112.1,41.9 C112.7,42.1 113.2,42.4 113.7,42.8 Z M128.9,49.2 C129.2,49.2 129.5,49.5 129.5,50 L129.5,50.7 C129.5,51 129.2,51.3 128.9,51.3 L118.6,51.3 C118.3,51.3 118,51 118,50.7 L118,34.3 C118,34 118.3,33.7 118.6,33.7 L128.9,33.7 C129.2,33.7 129.5,34 129.5,34.3 L129.5,35 C129.5,35.3 129.2,35.6 128.9,35.6 L120.7,35.6 C120.4,35.6 120.1,35.9 120.1,36.2 L120.1,40.5 C120.1,40.8 120.4,41.1 120.7,41.1 L127.8,41.1 C128.1,41.1 128.4,41.4 128.4,41.7 L128.4,42.4 C128.4,42.7 128.1,43 127.8,43 L120.7,43 C120.4,43 120.1,43.3 120.1,43.6 L120.1,48.6 C120.1,48.9 120.4,49.2 120.7,49.2 L128.9,49.2 Z M141.6,39.9 C141.6,40 141.6,40 141.5,40 L138.5,40 C138,40 137.6,39.9 137.4,39.6 C137.2,39.3 137.1,38.9 137.1,38.3 L137.1,33.7 C137.1,33.6 137.1,33.6 137.2,33.6 L138,33.6 C138.1,33.6 138.1,33.6 138.1,33.7 L138.1,35.6 C138.1,35.7 138.2,35.7 138.2,35.7 C139.4,35.4 140.4,35 141,34.7 C141.1,34.7 141.1,34.7 141.2,34.7 L141.5,35.4 C141.5,35.5 141.5,35.5 141.5,35.5 C141.2,35.7 140.8,35.9 140.1,36.1 C139.4,36.3 138.8,36.5 138.2,36.6 C138.2,36.6 138.1,36.7 138.1,36.7 L138.1,38.2 C138.1,38.4 138.1,38.6 138.2,38.7 C138.3,38.8 138.5,38.9 138.7,38.9 L141.5,38.9 C141.6,38.9 141.6,38.9 141.6,39 L141.6,39.9 Z M140.7,34.4 L140.4,34.5 C140.3,34.5 140.3,34.5 140.3,34.4 C140.2,34.1 140,33.8 139.9,33.5 C139.9,33.4 139.9,33.4 140,33.3 L140.3,33.2 C140.4,33.2 140.4,33.2 140.4,33.3 C140.6,33.7 140.7,34 140.8,34.2 C140.8,34.3 140.8,34.4 140.7,34.4 Z M141.8,34.3 L141.5,34.4 C141.4,34.4 141.4,34.4 141.4,34.3 C141.2,33.9 141.1,33.6 141,33.4 C141,33.3 141,33.3 141.1,33.3 L141.4,33.2 C141.5,33.2 141.5,33.2 141.5,33.3 C141.6,33.6 141.8,33.9 141.9,34.2 C141.9,34.2 141.9,34.3 141.8,34.3 Z M147.9,36.5 C147.9,36.5 148,36.6 147.9,36.6 C147.5,37.4 146.9,38.1 146.1,38.8 C145.3,39.4 144.4,39.9 143.5,40.2 C143.5,40.2 143.4,40.2 143.4,40.2 L143,39.8 C143,39.8 143,39.8 143,39.7 L143,33.9 C143,33.8 143,33.8 143.1,33.8 L144,33.8 C144.1,33.8 144.1,33.8 144.1,33.9 L144.1,38.7 C144.1,38.8 144.2,38.8 144.3,38.8 C144.8,38.6 145.3,38.2 145.8,37.8 C146.3,37.3 146.8,36.7 147.2,36 C147.2,35.9 147.3,35.9 147.4,36 L147.9,36.5 Z M150,37.6 L149.3,37.8 C149.2,37.8 149.2,37.8 149.2,37.7 C149,37 148.8,36.2 148.5,35.4 C148.5,35.3 148.5,35.3 148.6,35.3 L149.2,35.1 C149.3,35.1 149.3,35.1 149.3,35.2 C149.4,35.4 149.5,35.7 149.6,35.9 C149.7,36.2 149.9,36.7 150.1,37.5 C150.1,37.5 150.1,37.6 150,37.6 Z M153.1,35 C153.2,35 153.2,35.1 153.2,35.1 C153.1,36.6 152.7,37.8 152.2,38.6 C151.6,39.4 150.8,40 149.7,40.2 C149.7,40.2 149.6,40.2 149.6,40.1 L149.3,39.5 C149.3,39.4 149.3,39.4 149.4,39.4 C150.3,39.2 151,38.8 151.5,38.1 C152,37.4 152.3,36.4 152.4,35 C152.4,34.9 152.5,34.9 152.5,34.9 L153.1,35 Z M151.5,37.2 L150.9,37.4 C150.8,37.4 150.8,37.4 150.8,37.3 C150.6,36.6 150.4,35.8 150.1,35 C150.1,34.9 150.1,34.9 150.2,34.9 L150.8,34.7 C150.9,34.7 150.9,34.7 150.9,34.8 C151.1,35.2 151.2,35.5 151.3,35.7 C151.4,35.9 151.5,36.4 151.8,37.1 C151.5,37.1 151.5,37.2 151.5,37.2 Z M157,36.6 L156.7,37.3 C156.7,37.4 156.6,37.4 156.5,37.4 C156.1,37.2 155.8,37 155.5,36.9 C155.2,36.8 154.8,36.6 154.2,36.4 C154.1,36.4 154.1,36.3 154.1,36.3 L154.4,35.6 C154.4,35.5 154.5,35.5 154.5,35.5 C154.9,35.6 155.2,35.7 155.5,35.8 C155.8,35.9 156.3,36.1 156.9,36.4 C157,36.5 157,36.6 157,36.6 Z M159.6,36.2 C159.6,36.2 159.7,36.3 159.6,36.3 C159.1,37.4 158.4,38.3 157.6,38.9 C156.8,39.5 155.8,39.9 154.7,40 C154.6,40 154.6,40 154.6,39.9 L154.4,39.1 C154.4,39 154.4,39 154.5,39 C155.4,38.9 156.3,38.6 156.9,38.1 C157.6,37.6 158.2,36.9 158.7,35.8 C158.7,35.7 158.8,35.7 158.8,35.8 L159.6,36.2 Z M157.6,34.8 L157.3,35.5 C157.3,35.6 157.2,35.6 157.2,35.5 C157,35.4 156.8,35.3 156.6,35.2 C156.4,35.1 156.2,35 156,34.9 L154.8,34.4 C154.7,34.4 154.7,34.3 154.7,34.3 L155,33.6 C155,33.5 155.1,33.5 155.1,33.5 C155.7,33.7 156.5,34 157.5,34.5 C157.6,34.7 157.6,34.7 157.6,34.8 Z M158.6,35.1 L158.3,35.2 C158.2,35.2 158.2,35.2 158.2,35.1 C158.1,34.8 157.9,34.5 157.8,34.2 C157.8,34.1 157.8,34.1 157.9,34 L158.2,33.9 C158.3,33.9 158.3,33.9 158.3,34 C158.5,34.4 158.6,34.7 158.7,34.9 C158.7,35 158.6,35 158.6,35.1 Z M159.7,35 L159.4,35.1 C159.3,35.1 159.3,35.1 159.3,35 C159.1,34.6 159,34.3 158.9,34.1 C158.9,34 158.9,34 159,34 L159.3,33.9 C159.4,33.9 159.4,33.9 159.4,34 C159.5,34.3 159.7,34.6 159.8,34.9 C159.8,34.9 159.8,34.9 159.7,35 Z M139.2,43 C139.3,43 139.3,43.1 139.3,43.1 C139.3,44.2 139.2,45.1 139.1,45.8 C139,46.5 138.8,47.1 138.5,47.7 C138.2,48.3 137.9,48.8 137.4,49.3 C137.4,49.3 137.3,49.4 137.2,49.3 L136.5,48.7 C136.5,48.7 136.4,48.6 136.5,48.5 C136.9,48.1 137.2,47.7 137.4,47.3 C137.6,46.9 137.8,46.4 137.9,45.8 C138,45.2 138.1,44.3 138.2,43 C138.2,42.9 138.3,42.9 138.3,42.9 L139.2,43 Z M142.8,48.6 L142,49.2 C142,49.2 141.9,49.2 141.8,49.2 C141.4,48.6 141,48 140.8,47.3 C140.6,46.6 140.4,45.9 140.3,45.1 C140.2,44.4 140.1,43.7 140.1,43 C140.1,42.9 140.1,42.9 140.2,42.9 L141.2,42.9 L141.2,43 C141.2,44.1 141.3,45 141.5,45.9 C141.7,46.7 142.1,47.6 142.7,48.4 C142.9,48.5 142.9,48.6 142.8,48.6 Z M148.9,44.3 C148.9,46.1 148.5,47.4 147.9,48.1 C147.3,48.8 146.3,49.3 144.9,49.5 C144.8,49.5 144.8,49.5 144.8,49.4 L144.6,48.6 C144.6,48.5 144.6,48.5 144.7,48.5 C145.4,48.4 145.9,48.3 146.2,48.1 C146.5,47.9 146.8,47.7 147.1,47.4 C147.3,47.1 147.5,46.9 147.6,46.7 C147.7,46.5 147.7,46.2 147.8,45.8 C147.8,45.5 147.9,45.1 147.9,44.7 C147.9,44.6 147.9,44.6 147.8,44.6 L145,44.6 C144.9,44.6 144.9,44.6 144.9,44.7 L144.9,46.5 C144.9,46.6 144.9,46.6 144.8,46.6 L144,46.6 C143.9,46.6 143.9,46.6 143.9,46.5 L143.9,43.7 C143.9,43.6 143.9,43.6 144,43.6 L145.8,43.6 C145.9,43.6 145.9,43.6 145.9,43.5 L145.9,42.8 C145.9,42.7 145.9,42.7 146,42.7 L146.8,42.7 C146.9,42.7 146.9,42.7 146.9,42.8 L146.9,43.5 C146.9,43.6 146.9,43.6 147,43.6 L148.9,43.6 C149,43.6 149,43.6 149,43.7 L149,44.3 L148.9,44.3 Z M155.7,48.7 L155,49.3 C155,49.3 154.9,49.3 154.8,49.3 C154.5,48.8 153.9,48.1 153,47.1 C153,47 152.9,47.1 152.8,47.1 C152,48.1 151.1,48.8 150.3,49.3 C150.3,49.3 150.2,49.3 150.2,49.3 L149.7,48.6 C149.7,48.5 149.7,48.5 149.7,48.4 C150.5,47.9 151.2,47.3 151.9,46.6 C152.5,45.9 153,45.1 153.3,44.2 C153.3,44.1 153.3,44.1 153.2,44.1 L150.5,44.1 C150.4,44.1 150.4,44.1 150.4,44 L150.4,43.2 C150.4,43.1 150.4,43.1 150.5,43.1 L154.3,43.1 C154.3,43.1 154.4,43.1 154.4,43.1 L154.6,43.3 C154.6,43.3 154.6,43.4 154.6,43.4 C154.5,44 154.3,44.5 154.2,44.9 C154,45.3 153.8,45.7 153.6,46.1 C153.6,46.1 153.6,46.2 153.6,46.2 C154.4,47 155.1,47.8 155.6,48.4 C155.7,48.6 155.7,48.7 155.7,48.7 Z" id="Combined-Shape" fill="#FFFFFF"></path>
        </g>
    </g>
</svg>