<?xml version="1.0" standalone="no"?>
<!DOCTYPE svg PUBLIC "-//W3C//DTD SVG 1.1//EN" "http://www.w3.org/Graphics/SVG/1.1/DTD/svg11.dtd" >
<svg xmlns="http://www.w3.org/2000/svg">
<metadata>Generated by IcoMoon</metadata>
<defs>
<font id="icomoon" horiz-adv-x="1024">
<font-face units-per-em="1024" ascent="960" descent="-64" />
<missing-glyph horiz-adv-x="1024" />
<glyph unicode="&#x20;" horiz-adv-x="512" d="" />
<glyph unicode="&#xe900;" glyph-name="available" horiz-adv-x="1132" d="M880.209 53.275v469.8h107.789v-577.59h-841.081v574.733h107.789v-466.944h625.502zM569.96 808.342l-494.311-486.754-75.629 76.803 570.326 561.607 564.745-561.8-76.019-76.418-489.112 486.561zM734.743 528.097l113.403-115.246-350.358-344.755-210.413 210.487 114.348 114.308 97.003-97.037z" />
<glyph unicode="&#xe901;" glyph-name="arrow-down" d="M777.12 598.912l-265.12-265.184-265.12 265.216c-12.64 12.64-33.088 12.64-45.728 0-12.608-12.64-12.608-33.12 0-45.76l287.968-288.064c12.608-12.64 33.088-12.64 45.696 0l287.968 288.064c12.608 12.64 12.608 33.152 0 45.792-12.576 12.576-33.056 12.576-45.664-0.064z" />
<glyph unicode="&#xe902;" glyph-name="uniE902" d="M770.731 935.367c-46.478-68.836-92.501-138.012-137.842-207.644-5.746-9.842-8.59-21.049-8.306-32.427 0-15.588 4.551-32.882 13.426-49.892 8.704-16.384 37.148-66.219 51.2-90.738-15.246-21.39-53.988-71.908-133.803-151.438-79.303-79.076-130.332-118.101-151.95-133.291-24.462 13.938-74.524 42.268-90.965 50.972-31.004 16.27-62.009 18.091-82.83 4.892-69.063-45.227-137.785-91.022-206.165-137.33-15.246-11.093-23.495-30.891-23.495-52.224 0-16.896 5.12-34.873 15.986-50.46 1.138-1.422 108.373-151.78 170.439-149.788 174.535 5.575 379.676 174.763 521.045 315.62 141.255 140.914 310.841 345.429 316.53 520.306 0 62.578-148.764 170.098-150.244 171.179-40.448 28.217-84.878 17.92-103.026-7.737z" />
<glyph unicode="&#xe903;" glyph-name="uniE903" d="M185.23-64c-16.441 0-37.433 10.411-62.464 30.891-14.564 12.117-29.867 26.852-45.568 43.861-21.788 23.836-42.439 49.038-61.269 75.093-10.354 14.848-15.929 32.654-15.929 50.404 0 22.073 8.818 41.529 23.552 52.167 68.494 46.421 137.045 92.046 205.938 137.159 20.935 13.312 52.736 11.378 83.115-4.722 30.606-16.668 60.814-33.564 90.852-50.916v0c28.046 19.627 77.028 58.596 151.95 133.291 58.766 58.482 105.017 110.82 133.803 151.438-25.429 44.487-44.26 77.653-51.143 90.738-8.818 16.725-13.426 33.963-13.426 49.892-0.341 10.923 2.446 22.13 8.135 32.028 45.682 70.087 91.477 139.093 137.899 207.701 20.252 28.729 67.755 32.711 103.196 8.021 41.643-28.956 150.13-116.338 150.13-171.065-4.494-140.459-110.99-315.392-316.53-520.363-205.824-205.028-381.099-311.182-521.045-315.62h-1.195zM262.713 306.062c-7.111 0-13.255-1.479-17.863-4.38-68.551-44.885-136.988-90.51-205.028-136.533-6.884-5.006-11.378-16.156-11.378-28.9 0-12.004 3.755-24.007 10.638-33.906 18.091-24.917 37.945-49.323 59.051-72.306 14.848-16.1 29.241-29.98 42.724-41.244 27.648-22.585 40.96-24.405 44.373-24.405v-14.222l0.284 14.222c130.617 4.096 304.128 110.364 501.817 307.257 197.461 196.892 304.071 370.062 308.224 500.679 0 27.193-64.512 96.256-138.069 147.342-22.528 15.701-52.565 14.677-63.545-0.91-46.137-68.21-91.819-137.102-137.045-206.336-2.56-4.608-4.096-10.695-3.868-16.782 0-11.605 3.584-24.633 10.183-37.092 6.827-12.971 25.486-45.852 50.688-89.884l9.102-15.701-10.638-14.848c-29.639-41.87-77.028-95.516-136.818-155.079-60.473-60.302-114.29-107.463-155.705-136.42l-14.734-10.411-15.644 8.932c-29.924 17.237-60.018 34.076-90.283 50.574-12.743 6.77-25.372 10.354-36.466 10.354z" />
<glyph unicode="&#xe904;" glyph-name="hamburger" d="M0 960h1024v-102.4h-1024v102.4zM0 499.2h1024v-102.4h-1024v102.4zM0 38.4h1024v-102.4h-1024v102.4z" />
<glyph unicode="&#xe905;" glyph-name="close" d="M512 360.22l387.982-387.982c29.127-29.127 70.542-31.118 94.72-6.94 24.178 24.121 22.187 65.593-6.94 94.663l-387.982 388.039 387.982 387.982c29.241 29.241 31.118 70.542 6.94 94.72-24.121 24.178-65.479 22.3-94.663-6.94l-388.039-387.982-387.982 387.982c-29.298 29.241-70.542 31.118-94.777 6.94-24.121-24.121-22.244-65.479 6.997-94.663l387.982-388.039-387.982-387.982c-29.127-29.127-31.118-70.542-6.94-94.72 24.121-24.178 65.593-22.187 94.663 6.94l388.039 387.982z" />
<glyph unicode="&#xe906;" glyph-name="uniE906" d="M512-64c-282.77 0-512 229.23-512 512s229.23 512 512 512c282.77 0 512-229.23 512-512s-229.23-512-512-512z" />
<glyph unicode="&#xe907;" glyph-name="three-dots" horiz-adv-x="5632" d="M0 448c0.073 282.785 229.332 512 512.128 512 282.84 0 512.128-229.288 512.128-512.128 0-0.045 0-0.090 0-0.135v0.007c-0.073-282.785-229.332-512-512.128-512-282.84 0-512.128 229.288-512.128 512.128 0 0.045 0 0.090 0 0.135v-0.007zM2304 448c0.073 282.785 229.332 512 512.128 512 282.84 0 512.128-229.288 512.128-512.128 0-0.045 0-0.090 0-0.135v0.007c-0.073-282.785-229.332-512-512.128-512-282.84 0-512.128 229.288-512.128 512.128 0 0.045 0 0.090 0 0.135v-0.007zM4608 448c0.073 282.785 229.332 512 512.128 512 282.84 0 512.128-229.288 512.128-512.128 0-0.045 0-0.090 0-0.135v0.007c-0.073-282.785-229.332-512-512.128-512-282.84 0-512.128 229.288-512.128 512.128 0 0.045 0 0.090 0 0.135v-0.007z" />
<glyph unicode="&#xe908;" glyph-name="uniE908" d="M1024 448c0-282.77-229.23-512-512-512s-512 229.23-512 512c0 282.77 229.23 512 512 512s512-229.23 512-512z" />
<glyph unicode="&#xe909;" glyph-name="uniE909" d="M571.733 277.333c-2.253 0-4.471 0.956-6.042 2.628l-153.6 161.69c-3.345 3.584-3.345 9.114 0 12.698l153.6 161.69c3.072 3.345 8.294 3.55 11.639 0.478 0.137-0.137 0.307-0.307 0.444-0.478 3.345-3.55 3.345-9.114 0-12.698l-147.558-155.341 147.558-155.375c3.345-3.55 3.345-9.148 0-12.698-1.57-1.673-3.755-2.628-6.042-2.594z" />
<glyph unicode="&#xe90a;" glyph-name="uniE90A" d="M571.733 265.114v0c-5.598 0.034-11.025 2.389-14.916 6.519l-153.566 161.621c-7.748 8.329-7.748 21.197-0.068 29.389l153.668 161.792c3.55 3.857 8.602 6.212 14.063 6.417 5.461 0.307 10.684-1.707 14.677-5.393 8.738-9.284 8.738-22.187 1.092-30.413l-139.674-147.046 139.571-146.978c7.782-8.294 7.782-21.197 0.068-29.423-3.891-4.13-9.318-6.485-14.916-6.485z" />
<glyph unicode="&#xe90b;" glyph-name="uniE90B" d="M1024 448c0-282.77-229.23-512-512-512s-512 229.23-512 512c0 282.77 229.23 512 512 512s512-229.23 512-512z" />
<glyph unicode="&#xe90c;" glyph-name="uniE90C" d="M452.267 277.333c2.287 0 4.471 0.956 6.042 2.628l153.6 161.69c3.345 3.584 3.345 9.114 0 12.698l-153.6 161.69c-3.072 3.345-8.294 3.55-11.605 0.478-0.137-0.137-0.307-0.307-0.444-0.478-3.345-3.55-3.345-9.114 0-12.698l147.524-155.341-147.558-155.375c-3.345-3.55-3.345-9.148 0-12.698 1.57-1.673 3.755-2.628 6.042-2.594z" />
<glyph unicode="&#xe90d;" glyph-name="uniE90D" d="M452.267 265.114c-5.666 0-11.093 2.389-14.95 6.519-7.68 8.192-7.68 21.094 0 29.321l139.674 147.046-139.605 146.944c-7.748 8.329-7.748 21.231-0.068 29.423 5.052 4.779 10.069 7.066 15.735 6.485 5.461-0.205 10.513-2.56 14.199-6.554l153.463-161.519c7.748-8.329 7.748-21.197 0.102-29.389l-153.702-161.792c-3.789-4.096-9.216-6.451-14.848-6.485v0z" />
<glyph unicode="&#xe90e;" glyph-name="uniE90E" horiz-adv-x="1005" d="M821.132 448c0-176.064-142.728-318.792-318.792-318.792s-318.792 142.728-318.792 318.792c0 176.064 142.728 318.792 318.792 318.792s318.792-142.728 318.792-318.792z" />
<glyph unicode="&#xe90f;" glyph-name="uniE90F" horiz-adv-x="1005" d="M821.132 448c0-176.064-142.728-318.792-318.792-318.792s-318.792 142.728-318.792 318.792c0 176.064 142.728 318.792 318.792 318.792s318.792-142.728 318.792-318.792z" />
<glyph unicode="&#xe910;" glyph-name="uniE910" horiz-adv-x="1005" d="M502.34 573.585c-74.704 0-135.245-52.978-135.245-118.34 0-37.347 19.833-70.617 50.717-92.295v-59.856l69.265 34.623c5.023-0.493 10.085-0.792 15.263-0.792 74.684 0 135.245 52.978 135.245 118.33s-60.561 118.33-135.245 118.33zM569.962 472.151l0.029-0.001c9.056-0.319 16.3-7.761 16.3-16.895 0-9.137-7.249-16.582-16.339-16.896l0.029 0.001c-0.198-0.007-0.396-0.010-0.595-0.010-9.337 0-16.906 7.569-16.906 16.906s7.569 16.906 16.906 16.906c0.203 0 0.404-0.004 0.576-0.010zM502.34 472.151v0c9.334-0.003 16.901-7.571 16.901-16.906 0-9.337-7.569-16.906-16.906-16.906-0.002 0-0.003 0-0.005 0v0c-9.334 0.003-16.901 7.571-16.901 16.906 0 9.337 7.569 16.906 16.906 16.906 0.002 0 0.003 0 0.005 0zM434.717 472.151v0c9.334-0.003 16.901-7.571 16.901-16.906 0-9.337-7.569-16.906-16.906-16.906-0.002 0-0.003 0-0.005 0v0c-9.334 0.003-16.901 7.571-16.901 16.906 0 9.337 7.569 16.906 16.906 16.906 0.002 0 0.003 0 0.005 0z" />
<glyph unicode="&#xe911;" glyph-name="uniE911" horiz-adv-x="1126" d="M830.31 908.8c155.853 0 244.89-110.848 244.89-266.035 0-314.112-512-655.565-512-655.565s-512 345.139-512 655.565c0 155.136 89.088 266.035 244.89 266.035 153.958 0 267.11-177.357 267.11-177.357s114.995 177.357 267.11 177.357z" />
<glyph unicode="&#xe912;" glyph-name="facebook" d="M730.255 567.346h-138.085v90.564c0 34.011 22.542 41.94 38.418 41.94 15.841 0 97.446 0 97.446 0v149.519l-134.202 0.524c-148.977 0-182.88-111.516-182.88-182.88v-99.667h-86.157v-154.071h86.157c0-197.727 0-435.967 0-435.967h181.218c0 0 0 240.588 0 435.967h122.281l15.804 154.071z" />
<glyph unicode="&#xe913;" glyph-name="twitter" d="M954.352 687.893c-32.711-14.54-67.914-24.348-104.851-28.737 37.714 22.578 66.631 58.341 80.268 101.004-35.275-20.934-74.326-36.124-115.923-44.325-33.289 35.474-80.738 57.655-133.245 57.655-100.805 0-182.537-81.731-182.537-182.555 0-14.287 1.608-28.213 4.732-41.597-151.722 7.622-286.25 80.286-376.29 190.737-15.714-26.949-24.709-58.305-24.709-91.792 0-63.326 32.223-119.21 81.208-151.939-29.911 0.957-58.070 9.176-82.689 22.849-0.018-0.759-0.018-1.535-0.018-2.312 0-88.433 62.929-162.199 146.448-178.996-15.317-4.154-31.446-6.394-48.1-6.394-11.777 0-23.21 1.138-34.354 3.287 23.246-72.52 90.654-125.316 170.525-126.779-62.477-48.967-141.174-78.155-226.717-78.155-14.721 0-29.261 0.867-43.548 2.565 80.81-51.82 176.757-82.020 279.838-82.020 335.794 0 519.396 278.158 519.396 519.396 0 7.911-0.163 15.804-0.506 23.643 35.655 25.684 66.613 57.853 91.070 94.465z" />
<glyph unicode="&#xe914;" glyph-name="location" horiz-adv-x="698" d="M349.091 448c-89.972 0-162.909 72.937-162.909 162.909s72.937 162.909 162.909 162.909v0c89.972 0 162.909-72.937 162.909-162.909s-72.937-162.909-162.909-162.909v0zM349.091 960c-192.791 0-349.091-155.927-349.091-348.16 0-203.869 204.66-528.291 300.544-651.962 11.345-14.591 28.901-23.889 48.629-23.889 19.687 0 37.211 9.259 48.455 23.66l0.102 0.136c95.977 123.392 300.451 446.976 300.451 652.055 0 192.233-156.3 348.16-349.091 348.16z" />
<glyph unicode="&#xe915;" glyph-name="trainline" horiz-adv-x="725" d="M700.16 297.685c-9.383-49.772-40.31-90.854-82.515-113.835l-0.855-0.426c-18.389-9.813-39.68-20.437-62.421-30.72l127.019-184.448c2.299-3.283 3.674-7.36 3.674-11.757 0-6.891-3.375-12.994-8.563-16.745l-0.060-0.042c-3.214-2.306-7.226-3.687-11.561-3.687-6.81 0-12.823 3.409-16.427 8.613l-0.043 0.066-50.389 73.216h-490.837l-50.389-73.216c-3.646-5.282-9.666-8.7-16.485-8.7-4.348 0-8.371 1.389-11.649 3.748l0.059-0.041c-5.231 3.794-8.595 9.887-8.595 16.766 0 4.407 1.38 8.491 3.732 11.844l-0.044-0.066 131.925 191.573c-22.435 10.446-37.912 18.322-53.177 26.541l5.988-2.946c-43.061 23.408-73.988 64.489-83.211 113.246l-0.16 1.015c-11.435 60.587-25.173 143.445-25.173 191.275 0 5.248 0.256 11.008 0.512 16.896-0.245 1.203-0.386 2.586-0.386 4.001 0 1.946 0.265 3.83 0.762 5.618l-0.035-0.147c0.085 0.171 0.256 0.299 0.256 0.512 7.936 113.621 60.16 321.579 99.072 408.704 9.588 21.071 30.458 35.456 54.688 35.456 0.064 0 0.127 0 0.191 0h415.222c23.595 0 45.141-13.653 54.869-35.456 38.869-87.125 91.136-295.083 99.072-408.747 0-0.171 0.171-0.299 0.256-0.427 0.939-3.285 0.853-6.4 0.341-9.515 0.256-5.888 0.512-11.648 0.512-16.896 0-47.829-13.739-130.645-25.173-191.275zM544 222.72c44.544 0 80.597 36.693 80.597 81.92s-36.053 81.92-80.597 81.92-80.597-36.693-80.597-81.92 36.053-81.92 80.597-81.92zM544 345.6c22.187 0 40.277-18.389 40.277-40.96s-18.091-40.96-40.277-40.96c-22.296 0.241-40.278 18.371-40.278 40.702 0 0.091 0 0.181 0.001 0.272v-0.014c0 22.571 18.091 40.96 40.277 40.96zM569.771 58.88l-53.461 77.653c-51.2-20.48-106.325-36.693-153.643-36.693-52.224 0-113.92 19.584-169.387 43.051l-57.899-84.011h434.389zM100.736 304.64c0-45.227 36.053-81.92 80.597-81.92s80.597 36.693 80.597 81.92-36.053 81.92-80.597 81.92-80.597-36.693-80.597-81.92zM221.611 304.64c0-22.571-18.091-40.96-40.277-40.96-22.296 0.241-40.278 18.371-40.278 40.702 0 0.091 0 0.181 0.001 0.272v-0.014c0 22.571 18.091 40.96 40.277 40.96s40.277-18.389 40.277-40.96zM42.24 524.288c49.92-14.080 206.549-55.808 320.427-55.808s270.507 41.685 320.427 55.808c-9.941 109.952-58.923 303.403-94.635 383.317-3.204 6.808-10.007 11.437-17.891 11.437-0.1 0-0.2-0.001-0.3-0.002h-415.217c-0.085 0.001-0.185 0.002-0.285 0.002-7.884 0-14.687-4.629-17.84-11.317l-0.051-0.12c-35.669-79.872-84.693-273.365-94.635-383.317zM463.36 857.6c0-11.307-9.003-20.48-20.139-20.48h-161.195c-11.143 0.096-20.139 9.152-20.139 20.309 0 0.060 0 0.12 0.001 0.181v-0.009c0 11.307 9.003 20.48 20.139 20.48h161.195c11.093 0 20.139-9.173 20.139-20.48z" />
<glyph unicode="&#xe916;" glyph-name="arrow-right" d="M694.336 470.848l-288.064 287.968c-12.64 12.608-33.12 12.608-45.792 0-12.64-12.608-12.64-33.088 0-45.696l265.216-265.12-265.184-265.12c-12.64-12.608-12.64-33.088 0-45.728 12.64-12.608 33.152-12.608 45.792 0l288.064 287.968c12.448 12.48 12.448 33.28-0.032 45.728z" />
<glyph unicode="&#xe917;" glyph-name="search" d="M454.656 159.642c-190.925 0-345.754 154.778-345.754 345.754s154.778 345.754 345.754 345.754c190.925-2.304 343.91-159.027 341.555-350.003-2.253-187.648-153.856-339.251-341.555-341.504zM454.656 908.8c-222.822 0-403.456-180.582-403.456-403.405s180.582-403.456 403.405-403.456c0 0 0.051 0 0.051 0 222.874 0 403.456 180.634 403.456 403.456-0.051 222.771-180.685 403.405-403.456 403.405zM964.147 37.478l-163.686 163.686c-13.005-14.797-26.829-28.672-41.626-41.626l163.686-163.738c11.52-11.52 30.157-11.52 41.626 0s11.52 30.208 0 41.677v0zM943.309-41.574c-14.899 0-29.798 5.683-41.165 17.050l-185.498 185.498 8.653 7.526c-74.086-59.699-168.294-95.437-270.643-95.437-115.507 0-224.051 44.954-305.715 126.618-81.613 81.664-126.618 190.208-126.566 305.664 0 115.456 44.954 224 126.618 305.664 81.613 81.613 190.157 126.566 305.613 126.566 0 0 0 0 0.051 0 238.285 0 432.179-193.946 432.23-432.23 0-103.014-36.25-197.786-96.666-272.128l8.858 10.035 185.395-185.446c22.733-22.682 22.733-59.648 0-82.33-11.315-11.315-26.214-17.050-41.165-17.050zM800.205 158.925l142.643-142.694 0.973 0.973-142.694 142.643c-0.307-0.358-0.614-0.666-0.922-0.922zM454.605 879.974c-100.045 0-194.15-38.963-264.858-109.722-70.758-70.758-109.773-164.864-109.773-264.909s38.963-194.15 109.722-264.909c70.758-70.81 164.813-109.773 264.909-109.773 206.643 0 374.733 168.090 374.733 374.682-0.102 206.592-168.141 374.63-374.733 374.63 0 0 0 0 0 0zM455.014 130.816l-0.358 28.774v-28.774c-206.541 0-374.528 167.987-374.528 374.528s168.038 374.528 374.528 374.528c100.403-1.229 193.997-41.318 263.834-112.947 69.888-71.578 107.725-166.144 106.496-266.189-2.458-204.902-164.966-367.411-369.971-369.92zM454.298 822.374c-174.438 0-316.621-142.182-316.621-316.928s142.182-316.928 316.928-316.928v-0.051c173.363 2.304 310.63 139.725 312.73 313.088 1.075 84.685-30.925 164.659-90.112 225.28s-138.291 94.515-222.925 95.539z" />
<glyph unicode="&#xe918;" glyph-name="human" horiz-adv-x="973" d="M907.827-0.051h-842.854c-13.158 52.787 5.325 137.267 26.522 163.635 32.768 17.664 175.104 56.627 297.677 85.146v102.093c-81.459 54.682-129.69 173.363-129.69 281.293 0 145.869 37.786 264.141 226.816 264.141s226.816-118.272 226.816-264.141c0-107.878-48.128-226.509-129.434-281.139v-101.376c121.958-28.877 264.96-68.557 298.24-86.067 20.838-26.573 39.014-110.797 25.907-163.584zM923.597 217.446c-23.398 23.808-207.206 71.168-291.84 92.058 91.034 70.195 146.534 200.090 146.534 323.789 0 180.378-53.094 326.707-291.994 326.707-238.848 0-291.891-146.33-291.891-326.707 0-124.109 55.757-254.259 147.302-324.454-86.682-20.89-267.725-66.97-291.84-91.392-50.79-51.046-71.373-204.646-20.634-281.446h914.381c50.33 76.749 30.259 230.349-20.019 281.446z" />
<glyph unicode="&#xe919;" glyph-name="email" horiz-adv-x="1280" d="M1200 54.144c0-21.632-17.92-39.36-40-39.36h-1040c-0.058 0-0.126 0-0.195 0-21.828 0-39.553 17.568-39.805 39.337v786.2l530.56-417.92c0.384-0.64 0.128-1.536 0.768-2.048 7.086-6.864 16.757-11.094 27.417-11.094 0.464 0 0.926 0.008 1.386 0.024l-0.067-0.002c0.379-0.013 0.824-0.021 1.271-0.021 10.634 0 20.28 4.231 27.346 11.101l-0.009-0.009c0.64 0.512 0.32 1.408 0.896 2.048l530.432 417.92v-786.176zM1126.656 881.28l-486.592-383.616-486.784 383.616h973.44zM1279.808 921.472c0 0.576-0.32 0.832-0.32 1.408-0.538 9.226-4.234 17.497-10.012 23.839l0.028-0.031c-0.64 0.768-0.32 1.792-0.96 2.56-0.896 0.832-2.304 0.512-3.264 1.28-5.875 4.816-13.258 7.998-21.346 8.756l-0.158 0.012c-1.6 0.064-2.816 0.704-4.352 0.704h-1198.848c-1.536 0-2.816-0.64-4.352-0.768-8.255-0.773-15.641-3.98-21.57-8.885l0.066 0.053c-0.96-0.64-2.304-0.384-3.2-1.216-0.64-0.832-0.384-1.856-1.088-2.624-5.714-6.325-9.384-14.592-9.915-23.703l-0.005-0.105c-0.128-0.512-0.32-0.768-0.32-1.344 0-0.32-0.192-0.448-0.192-0.768v-945.28c0-21.76 17.92-39.36 40-39.36h1200c0.095-0.001 0.208-0.001 0.321-0.001 21.803 0 39.498 17.584 39.679 39.344v945.297c0 0.32-0.192 0.448-0.192 0.768z" />
<glyph unicode="&#xe91a;" glyph-name="filter" horiz-adv-x="977" d="M418.909 541.091h139.636v139.636h-139.636v-139.636zM512 727.273h46.545c25.706 0 46.545-20.839 46.545-46.545v0-139.636c0-25.706-20.839-46.545-46.545-46.545v0h-46.545v-535.273c0-12.853-10.42-23.273-23.273-23.273s-23.273 10.42-23.273 23.273v0 535.273h-46.545c-25.706 0-46.545 20.839-46.545 46.545v0 139.636c0 25.706 20.839 46.545 46.545 46.545v0h46.545v209.455c0 12.853 10.42 23.273 23.273 23.273s23.273-10.42 23.273-23.273v0-209.455zM884.364 448h46.545c25.706 0 46.545-20.839 46.545-46.545v0-139.636c0-25.706-20.839-46.545-46.545-46.545v0h-46.545v-256c0-12.853-10.42-23.273-23.273-23.273s-23.273 10.42-23.273 23.273v0 256h-46.545c-25.706 0-46.545 20.839-46.545 46.545v0 139.636c0 25.706 20.839 46.545 46.545 46.545v0h46.545v488.727c0 12.853 10.42 23.273 23.273 23.273s23.273-10.42 23.273-23.273v0-488.727zM791.273 261.818h139.636v139.636h-139.636v-139.636zM139.636 308.364h46.545c25.706 0 46.545-20.839 46.545-46.545v0-139.636c0-25.706-20.839-46.545-46.545-46.545v0h-46.545v-116.364c0-12.853-10.42-23.273-23.273-23.273s-23.273 10.42-23.273 23.273v0 116.364h-46.545c-25.706 0-46.545 20.839-46.545 46.545v0 139.636c0 25.706 20.839 46.545 46.545 46.545v0h46.545v628.364c0 12.853 10.42 23.273 23.273 23.273s23.273-10.42 23.273-23.273v0-628.364zM46.545 122.182h139.636v139.636h-139.636v-139.636z" />
<glyph unicode="&#xe91b;" glyph-name="uniE91B" d="M358.4 491.52c0-2.048 0.87-4.045 2.355-5.427l145.51-138.24c3.226-3.072 8.243-3.072 11.469 0l145.51 138.24c3.021 2.816 3.174 7.526 0.358 10.496-0.102 0.102-0.205 0.256-0.358 0.358-3.226 2.97-8.192 2.97-11.469 0l-139.776-132.864-139.776 132.864c-3.226 3.021-8.243 3.021-11.469 0-1.536-1.485-2.355-3.43-2.355-5.427z" />
<glyph unicode="&#xe91c;" glyph-name="uniE91C" d="M512 319.949c-8.704 0-16.998 3.277-23.347 9.318l-145.562 138.291c-6.451 6.042-10.291 14.848-10.291 23.962 0 8.909 3.533 17.306 9.984 23.654 13.517 12.698 34.253 12.288 46.95 0.41l122.266-116.173 122.163 116.070c13.312 12.288 33.843 11.878 46.387 0.358 7.731-8.141 10.906-16.589 10.65-25.395-0.307-8.858-3.994-17.050-10.496-23.091l-145.357-138.086c-6.349-6.042-14.643-9.318-23.347-9.318z" />
<glyph unicode="&#xe91d;" glyph-name="uniE91D" d="M76.8 960h870.4c42.394 0 76.8-34.381 76.8-76.8v-870.4c0-42.394-34.406-76.8-76.8-76.8h-870.4c-42.419 0-76.8 34.406-76.8 76.8v870.4c0 42.419 34.381 76.8 76.8 76.8z" />
<glyph unicode="&#xe91e;" glyph-name="uniE91E" d="M934.4-64h-844.8c-49.408 0-89.6 40.192-89.6 89.6v844.8c0 49.408 40.192 89.6 89.6 89.6h844.8c49.408 0 89.6-40.192 89.6-89.6v-844.8c0-49.408-40.192-89.6-89.6-89.6zM89.6 934.4c-35.277 0-64-28.723-64-64v-844.8c0-35.302 28.723-64 64-64h844.8c35.302 0 64 28.698 64 64v844.8c0 35.277-28.698 64-64 64h-844.8z" />
<glyph unicode="&#xe91f;" glyph-name="uniE91F" d="M266.214 678.4h56.397c5.632 0 10.189 4.582 10.189 10.189v5.222c0 5.632-4.557 10.189-10.189 10.189h-56.397c-5.632 0-10.189-4.557-10.214-10.189v-5.222c0.026-5.632 4.582-10.189 10.214-10.189zM601.6 294.4c-77.773 0-140.8 63.053-140.8 140.8 0 77.773 63.027 140.8 140.8 140.8 77.747 0 140.8-63.027 140.8-140.8 0-77.747-63.053-140.8-140.8-140.8zM409.6 560.589c0-5.632-4.582-10.189-10.214-10.189h-133.171c-5.632 0-10.214 4.557-10.214 10.189v5.222c0 5.606 4.557 10.189 10.214 10.189h133.171c5.658 0 10.214-4.582 10.214-10.189v-5.222zM780.8 652.8h-563.2c-21.222 0-38.4-17.178-38.4-38.4v-358.4c0-21.197 17.178-38.4 38.4-38.4v0h563.2c21.197 0 38.4 17.203 38.4 38.4v0 358.4c0 21.222-17.203 38.4-38.4 38.4z" />
<glyph unicode="&#xe920;" glyph-name="uniE920" d="M652.8 499.2h-102.4c-7.066 0-12.8-5.734-12.8-12.8v-102.4c0-7.066 5.734-12.8 12.8-12.8h102.4c7.066 0 12.8 5.734 12.8 12.8v102.4c0 7.066-5.734 12.8-12.8 12.8z" />
<glyph unicode="&#xe921;" glyph-name="check" horiz-adv-x="1418" d="M1327.655 869.809c-15.281 15.202-40.015 15.202-55.375 0l-761.62-760.359-364.544 363.914c-15.36 15.439-40.33 15.439-55.769 0.079s-15.439-40.33-0.079-55.769l390.695-390.144c0.315-0.315 0.788-0.473 1.182-0.788 0.158-0.158 0.079-0.473 0.236-0.63 15.281-15.202 40.015-15.202 55.296 0l789.977 788.48c15.281 15.281 15.281 40.015 0 55.217zM510.031-24.694c-19.456 0-37.809 7.089-52.303 19.929l-0.079 0.079c-1.103 1.024-2.127 1.89-3.151 2.993l-1.497 1.418-390.617 390.144c-14.809 14.809-23.001 34.658-23.001 55.69 0 21.11 8.192 40.881 23.158 55.769 29.932 29.775 81.841 29.538 111.458-0.158l336.66-336.108 733.814 732.633c30.011 29.696 81.29 29.538 110.986 0 14.887-14.887 23.079-34.58 23.079-55.532s-8.192-40.645-23.001-55.454l-790.055-788.48c-14.809-14.73-34.501-22.922-55.454-22.922zM508.377 55.808l0.945-0.709-391.010 390.38 390.065-389.671z" />
<glyph unicode="&#xe922;" glyph-name="uniE922" d="M76.8 960h870.4c42.394 0 76.8-34.381 76.8-76.8v-870.4c0-42.394-34.406-76.8-76.8-76.8h-870.4c-42.419 0-76.8 34.406-76.8 76.8v870.4c0 42.419 34.381 76.8 76.8 76.8z" />
<glyph unicode="&#xe923;" glyph-name="uniE923" d="M934.4-64h-844.8c-49.408 0-89.6 40.192-89.6 89.6v844.8c0 49.408 40.192 89.6 89.6 89.6h844.8c49.408 0 89.6-40.192 89.6-89.6v-844.8c0-49.408-40.192-89.6-89.6-89.6zM89.6 934.4c-35.277 0-64-28.723-64-64v-844.8c0-35.302 28.723-64 64-64h844.8c35.302 0 64 28.698 64 64v844.8c0 35.277-28.698 64-64 64h-844.8z" />
<glyph unicode="&#xe924;" glyph-name="map" horiz-adv-x="1018" d="M989.855 960c0.489 0.032 1.060 0.050 1.636 0.050 14.834 0 26.86-12.026 26.86-26.86 0-0.575-0.018-1.147-0.054-1.713l0.004 0.077v-859.024c0-0.028 0-0.062 0-0.095 0-13.808-9.637-25.365-22.552-28.313l-0.195-0.037-318.554-108.084-341.35 119.482-301.506-119.482h-5.699c-0.489-0.032-1.060-0.050-1.636-0.050-14.834 0-26.86 12.026-26.86 26.86 0 0.575 0.018 1.147 0.054 1.713l-0.004-0.077v859.024c0 0.028 0 0.062 0 0.095 0 13.808 9.637 25.365 22.552 28.313l0.195 0.037 318.554 108.084 341.35-119.482 301.506 119.482zM676.951 49.783v676.951l-341.35 119.482v-677.001z" />
<glyph unicode="&#xe925;" glyph-name="uniE925" d="M806.4 217.6h12.8v435.2h-25.6v-409.6h-153.6v179.2h-25.6v-204.8h192zM217.6 217.6h-12.8v435.2h25.6v-256h153.6v-25.6h-153.6v-128h256v-25.6h-268.8zM384 652.8h25.6v-128h-25.6v128zM204.8 678.4h614.4v-25.6h-614.4v25.6zM307.2 524.8h179.2v-25.6h-179.2v25.6z" />
<glyph unicode="&#xe926;" glyph-name="uniE926" horiz-adv-x="1126" d="M563.149-43.622l-14.234 9.574c-21.402 14.438-523.315 356.454-523.315 676.813 0 177.152 106.189 291.635 270.49 291.635 126.925 0 225.587-105.984 267.213-159.386 42.086 53.35 141.466 159.386 267.008 159.386 164.301 0 270.49-114.483 270.49-291.635 0-324.096-502.067-662.63-523.418-676.864l-14.234-9.523zM296.090 883.2c-135.27 0-219.29-92.109-219.29-240.435 0-264.909 404.736-566.272 486.451-624.384 81.869 57.6 486.349 356.25 486.349 624.384 0 148.275-84.070 240.435-219.29 240.435-136.602 0-244.531-164.045-245.606-165.683l-21.606-33.331-21.453 33.434c-1.075 1.69-107.674 165.581-245.555 165.581z" />
<glyph unicode="&#xe927;" glyph-name="checkmark" d="M923.819 822.997c-12.501 12.587-32.853 12.587-45.269 0l-477.056-474.837c-12.501-12.672-32.896-12.672-45.312 0l-209.024 212.864c-6.187 6.315-14.293 9.429-22.443 9.472-8.235 0.043-16.597-3.072-22.869-9.472l-92.373-83.029c-6.144-6.315-9.472-14.208-9.472-22.443 0-8.277 3.328-16.939 9.515-23.211l210.773-221.184c12.459-12.629 32.896-33.109 45.312-45.653l90.624-91.349c12.459-12.501 32.811-12.501 45.312 0l612.949 611.84c12.501 12.544 12.501 33.152 0 45.696l-90.667 91.307z" />
<glyph unicode="&#xe928;" glyph-name="new" d="M767.005 638.035l-83.227 77.59-173.202-185.744-179.6 179.6-80.457-80.457 182.409-182.409-175.933-188.65 83.227-77.59 173.202 185.744 179.6-179.6 80.457 80.457-182.409 182.409zM512 960c-282.312 0-512-229.688-512-512s229.688-512 512-512 512 229.688 512 512-229.688 512-512 512zM512 21.333c-235.266 0-426.667 191.4-426.667 426.667s191.4 426.667 426.667 426.667 426.667-191.4 426.667-426.667-191.4-426.667-426.667-426.667z" />
<glyph unicode="&#xe929;" glyph-name="elevator" d="M968.4 918.768h-912.832c-30.096 0-54.48-24.016-54.48-53.664v-834.208c0-29.616 24.384-53.664 54.48-53.664h912.832c30.096 0 54.496 24.048 54.496 53.664v834.192c0.016 29.664-24.4 53.68-54.496 53.68zM967.344 83.008c0-26.144-21.728-47.232-48.624-47.232h-814.288c-26.848 0-48.64 21.088-48.64 47.232v734.096c0 26.080 21.776 47.232 48.64 47.232h814.288c26.896 0 48.624-21.152 48.624-47.232v-734.096zM377.616 725.552c0-45.093-36.555-81.648-81.648-81.648s-81.648 36.555-81.648 81.648c0 45.093 36.555 81.648 81.648 81.648s81.648-36.555 81.648-81.648zM391.184 605.664h-195.52c-31.504 0-57.072-23.968-57.072-53.856v-168.304c0-26.256 20.144-48.24 46.672-52.864l-0.064-0.128c0 0 16-0.144 18.896-20.128 5.744-40 18.736-131.84 23.088-169.312 5.68-48.24 35.824-49.264 35.824-49.264s26.928-6.736 61.968 0c34.72 6.736 37.984 47.12 37.984 47.12l21.728 174.816c1.776 14.352 15.2 16.512 15.2 16.512v0.16c27.36 3.984 48.448 26.256 48.448 53.072v168.304c-0.016 29.888-25.648 53.872-57.152 53.872zM871.184 557.84c-0.032 0-0.048 0.064-0.080 0.064l-134.048 134.112c0 0 0 0-0.016 0-21.888 21.92-40.4 8.432-46.704 2.496l-2.512-2.496-127.28-127.264c-46.496-46.496-6.352-57.12-0.624-58.384h311.264c0.080-0.016 41.68 9.824 0 51.472zM875.072 388.288l-318.704 0.384c0 0 0 0-0.032 0-44.144-0.064-18.512-32-5.84-45.408l140.064-140.464c5.616-5.36 26.784-22.336 50.768 1.584l133.76 133.472c48.080 47.952 0.432 50.384-0.016 50.432z" />
<glyph unicode="&#xe92a;" glyph-name="rect3000-1-5" horiz-adv-x="1364" d="M687.252 960q-29.045 0.040-58.046-0.246c-104.047-1.802-208.736-4.33-311.811-18.73-35.574-18.083-53.815-57.776-76.034-89.179-40.166-67.215-58.86-144.451-80.991-218.663-9.283-10.097-15.634-24.139-26.044-32.621-9.315 2.25 0.675 23.258-1.615 33.24 5.453 30.835-31.45 49.612-57.177 37.828-26.036-10.057-65.488-12.721-75.534-43.409-0.262-34.804 35.637-60.856 69.207-56.558 15.455-2.524 22-21.778 31.506-32.375 0.794-56.209-11.966-112.552-8.807-169.178 1.623-35.824-1.984-73.509 9.053-107.905 1.881-2.377 4.765-3.888 8.003-3.888 0.326 0 0.649 0.015 0.968 0.045l-0.041-0.003c-0.647-1.878-1.051-4.044-1.115-6.295l-0.001-0.031v-291.72c0.507-13.217 11.093-23.803 24.263-24.309l0.047-0.001h97.24c13.216 0.509 23.801 11.094 24.309 24.263l0.001 0.047v100.586h853.703v-100.59c0.513-13.214 11.096-23.795 24.263-24.305l0.047-0.001h97.24c13.215 0.513 23.797 11.095 24.309 24.262l0.001 0.048v291.72c-0.020 2.403-0.427 4.703-1.161 6.853l0.045-0.153c17.487-0.095 13.074 28.104 15.876 40.682 2.965 75.553 2.754 152.409-9.057 226.851 1.984 18.019 17.793 34.657 31.133 44.901 32.149-1.588 67.619 16.848 72.557 51.224-4.544 31.922-44.576 38.44-69.703 47.628-22.738 9.406-61.341 5.005-63.627-25.302-2.413-13.804 6.497-35.292 0.373-44.405-14.122 5.906-19.75 24.254-29.271 35.721-19.388 67.806-36.983 138.053-70.203 201.056-22.905 36.638-46.016 76.895-81.364 102.943-61.273 12.911-125.753 9.883-188.276 15.876-58.022 2.806-116.176 4.009-174.266 4.092zM682.414 928.621c114.576 0 229.169-0.365 238.139-1.238 8.088-0.817 15.492-2.437 22.554-4.803l-0.725 0.211c9.093-3.477 12.57-7.144 32.994-34.355 20.305-27.041 26.628-33.903 50.231-54.947 40.38-35.995 44.587-41.889 56.185-78.883 3.675-11.72 14.59-46.108 24.31-76.526s17.463-57.018 17.241-59.039l-0.373-3.719-98.105-0.869c-189.205-1.699-406.189-2.092-533.581-1.115-70.731 0.54-155.957 1.004-189.396 1.115-53.581 0.179-60.892 0.528-61.642 2.481-0.464 1.215 6.35 24.711 15.134 52.216s19.769 62.075 24.433 76.899c13.737 43.659 18.432 51.176 47.378 77.022 29.831 26.636 42.17 39.591 59.412 62.265 9.526 12.506 19.694 25.481 22.699 28.775 6.997 7.672 17.142 11.411 34.975 13.145 8.978 0.869 123.566 1.361 238.139 1.361zM202.418 564.091c60.9-12.76 116.442-51.116 172.154-78.633 31.597-11.907 73.795-44.389 48.993-81.614-41.841-29.557-100.502-9.922-148.341-8.68-38.039 10.887-97.863 7.208-116.22 49.116-2.381 39.579-11.502 113.505 43.413 119.812zM1153.73 561.86c61.876 2.227 73.716-100.876 34.729-133.707-61.559-39.69-141.939-35.788-212.836-36.34-34.066-5.358-67.25 36.209-32.617 60.527 61.543 48.961 134.715 88.536 210.725 109.52z" />
<glyph unicode="&#xe92b;" glyph-name="handicap" d="M866.496 139.76c-15.136 0-30.192 9.568-38.304 24.352l-106.96 195.52c0 0-274.64-0.016-274.96-0.016s-3.44 0.256-3.44 0.256l-4.992-0.048c-31.344 0-57.52 24.512-59.584 55.808l-17.44 265.92c-2.112 32.896 22.928 61.408 55.824 63.552l15.632 0.976c1.376 0.080 2.704 0.128 4.032 0.128 31.376 0 57.568-24.464 59.6-55.68l5.632-88.384h176.368c11.744 0 21.312-11.44 21.312-25.52 0-14.048-9.568-25.488-21.312-25.488h-173.072l6.048-91.2h208.032c5.376 0 10.544-0.848 15.808-2.608l1.136-0.368 1.168-0.208c12.912-2.24 24.304-10.768 31.232-23.376l127.168-232.528c11.472-21.2 5.808-46.768-12.624-56.928-5.008-2.752-10.48-4.16-16.304-4.16zM436.304 730.208c22.976 0 42.144-17.888 43.632-40.672l4.672-73.424 1.904-29.968h191.392c1.872 0 5.312-3.616 5.312-9.52 0-5.888-3.44-9.488-5.312-9.488h-190.176l2.272-34.112 3.936-59.2 1.984-29.888h223.008c3.648 0 7.136-0.592 10.752-1.776l2.272-0.768 2.368-0.4c7.968-1.392 15.424-7.12 19.904-15.28l127.12-232.432c7.328-13.552 4.528-29.408-6.24-35.344-2.688-1.488-5.424-2.176-8.592-2.176-9.392 0-18.928 6.304-24.256 16.032l-111.504 203.84-292.912 0.192c-22.96 0-42.112 17.952-43.632 40.848l-17.408 265.904c-1.552 24.112 16.784 45.008 40.784 46.576l15.776 0.976c0.992 0.048 1.968 0.080 2.944 0.080zM436.304 762.208c-1.664 0-3.328-0.048-5.008-0.16l-15.68-0.976c-41.776-2.704-73.44-38.8-70.752-80.56l17.44-265.936c2.656-40.080 36-70.752 75.568-70.752 0.928 0 1.856 0.016 2.784 0.048h2.208c1.488-0.24 2.96-0.24 4.416-0.24h264.496l102.4-187.2c11.312-20.624 31.936-32.672 52.336-32.672 8.336 0 16.448 1.968 24.032 6.144 26.288 14.48 34.64 49.6 18.944 78.608l-127.184 232.56c-9.6 17.44-25.584 28.496-42.496 31.44-6.624 2.208-13.536 3.424-20.88 3.424h-193.072l-3.936 59.2h155.984c20.624 0 37.312 18.656 37.312 41.488 0 22.864-16.688 41.52-37.312 41.52h-161.36l-4.672 73.424c-2.624 40.064-35.952 70.64-75.568 70.64v0zM424.512 798.784c-39.696 0-72 32.304-72 72s32.304 72 72 72c39.712 0 72.016-32.304 72.016-72s-32.304-72-72.016-72zM424.512 926.8c30.896 0 56.016-25.12 56.016-56s-25.12-56-56.016-56c-30.88 0-56 25.12-56 56 0 30.864 25.12 56 56 56zM424.512 958.8c-48.592 0-88-39.408-88-88 0-48.608 39.392-88 88-88s88.016 39.408 88.016 88c0 48.592-39.408 88-88.016 88v0zM240.304 551.568c0 0-146.576-104.336-132.768-293.904 13.808-189.552 162.688-298.528 291.632-316.944s271.664 34.768 351.488 175.456c7.664 17.168 16.112 29.44 0 44.8 0 0-20.72 16.112-36.848-8.432-16.112-24.56-39.904-86.736-127.376-131.232-53.728-27.632-125.104-52.192-224.096-22.272-99.008 29.936-221.792 143.52-205.664 303.136 10.736 84.416 39.136 151.184 128.16 220.24 18.416 16.88 17.648 28.384 9.2 38.368-8.432 9.984-21.488 12.288-33.76 4.608-12.304-7.696-19.968-13.824-19.968-13.824z" />
<glyph unicode="&#xe92c;" glyph-name="if_search_298865" horiz-adv-x="973" d="M960 128l-249.125 249.125c35.563 58.063 57.125 125.719 57.125 198.875 0 212.031-172 384-384 384-212.031 0-384-171.969-384-384 0-212 171.969-384 384-384 73.156 0 140.812 21.562 198.875 57l249.125-249c17.5-17.5 46.5-17.375 64 0l64 64c17.5 17.5 17.5 46.5 0 64zM384 320c-141.375 0-256 114.625-256 256s114.625 256 256 256 256-114.625 256-256-114.625-256-256-256z" />
<glyph unicode="&#xe92d;" glyph-name="uniE92D" horiz-adv-x="1126" d="M830.31 908.8c155.853 0 244.89-110.848 244.89-266.035 0-314.112-512-655.565-512-655.565s-512 345.139-512 655.565c0 155.136 89.088 266.035 244.89 266.035 153.958 0 267.11-177.357 267.11-177.357s114.995 177.357 267.11 177.357z" />
<glyph unicode="&#xe92e;" glyph-name="uniE92E" horiz-adv-x="1126" d="M563.149-43.622l-14.234 9.574c-21.402 14.438-523.315 356.454-523.315 676.813 0 177.152 106.189 291.635 270.49 291.635 126.925 0 225.587-105.984 267.213-159.386 42.086 53.35 141.466 159.386 267.008 159.386 164.301 0 270.49-114.483 270.49-291.635 0-324.096-502.067-662.63-523.418-676.864l-14.234-9.523zM296.090 883.2c-135.27 0-219.29-92.109-219.29-240.435 0-264.909 404.736-566.272 486.451-624.384 81.869 57.6 486.349 356.25 486.349 624.384 0 148.275-84.070 240.435-219.29 240.435-136.602 0-244.531-164.045-245.606-165.683l-21.606-33.331-21.453 33.434c-1.075 1.69-107.674 165.581-245.555 165.581z" />
<glyph unicode="&#xe92f;" glyph-name="heart-selected" horiz-adv-x="1138" d="M1137.778 664.405c0-349.013-568.889-728.405-568.889-728.405s-568.889 383.488-568.889 728.405c0 172.373 98.987 295.595 272.1 295.595 171.065 0 296.789-197.063 296.789-197.063s127.772 197.063 296.789 197.063c173.17 0 272.1-123.164 272.1-295.595z" />
<glyph unicode="&#xe930;" glyph-name="autocomplete-train_2" d="M887.467-0.61l-19.505-19.505-29.257 24.381h-677.79l-24.381-24.381-14.629 14.629 170.667 170.667 14.629-14.629-29.257-29.257h458.362l-29.257 43.886 14.629 14.629zM190.171 38.4h619.276l-53.638 58.514h-512l-53.638-58.514zM794.819 131.048h-580.267c-43.886 0-78.019 34.133-78.019 78.019v624.152c0 43.886 34.133 78.019 78.019 78.019h585.143c39.010 0 78.019-34.133 78.019-78.019v-624.152c-4.876-43.886-39.010-78.019-82.895-78.019zM648.533 818.59v4.876c0 19.505-19.505 43.886-43.886 43.886h-199.924c-19.505 0-43.886-19.505-43.886-43.886v-4.876c0-19.505 19.505-43.886 43.886-43.886h204.8c19.505 4.876 39.010 19.505 39.010 43.886zM775.314 491.886v214.552h-536.381v-214.552h536.381zM404.724 340.724v9.752c0 29.257-24.381 58.514-58.514 58.514h-9.752c-29.257 0-58.514-24.381-58.514-58.514v-9.752c0-29.257 24.381-58.514 58.514-58.514h9.752c29.257 0 58.514 24.381 58.514 58.514zM741.181 340.724v9.752c0 29.257-24.381 58.514-58.514 58.514h-9.752c-29.257 0-58.514-24.381-58.514-58.514v-9.752c0-29.257 24.381-58.514 58.514-58.514h9.752c34.133 0 58.514 24.381 58.514 58.514z" />
<glyph unicode="&#xe931;" glyph-name="autocomplete-station_2" d="M468.114 643.048h-399.848c-24.381 0-48.762-19.505-48.762-48.762v-433.981c0-24.381 19.505-48.762 48.762-48.762l736.305 9.752v370.59l-336.457 151.162zM136.533 228.571c-24.381 0-39.010 19.505-39.010 39.010s19.505 39.010 39.010 39.010 39.010-19.505 39.010-39.010-19.505-39.010-39.010-39.010zM375.467 228.571c-19.505 0-39.010 19.505-39.010 39.010s19.505 39.010 39.010 39.010c19.505 0 39.010-19.505 39.010-39.010s-19.505-39.010-39.010-39.010zM424.229 394.362h-341.333v126.781h341.333v-126.781zM629.029 360.229l-141.41 24.381v126.781l136.533-43.886 4.876-107.276zM770.438 330.971l-92.648 19.505v97.524l92.648-29.257v-87.771zM1004.495 633.295v-516.876h-126.781v531.505l126.781-14.629zM1004.495 682.057l-590.019 68.267v68.267h590.019v-136.533zM341.333 550.4h-180.419c-14.629 0-24.381 9.752-24.381 24.381v19.505c0 14.629 9.752 24.381 24.381 24.381h180.419c14.629 0 24.381-9.752 24.381-24.381v-19.505c0-14.629-9.752-24.381-24.381-24.381z" />
<glyph unicode="&#xe932;" glyph-name="autocomplete-location_2" d="M887.467 574.781c0-199.924-214.552-463.238-360.838-609.524-156.038 146.286-365.714 409.6-365.714 609.524s160.914 360.838 360.838 360.838 365.714-160.914 365.714-360.838zM526.629 740.571c-82.895 0-146.286-63.39-146.286-146.286s63.39-146.286 146.286-146.286 146.286 63.39 146.286 146.286-68.267 146.286-146.286 146.286z" />
<glyph unicode="&#xe933;" glyph-name="comingsoon" horiz-adv-x="1132" d="M880.209 53.275v469.8h107.789v-577.59h-841.081v574.733h107.789v-466.944h625.502zM569.96 808.342l-494.311-486.754-75.629 76.803 570.326 561.607 564.745-561.8-76.019-76.418-489.112 486.561zM487.155 583.222h161.684v-272.007h-161.684zM474.381 218.624h161.684v-99.867h-161.684z" />
<glyph unicode="&#xe934;" glyph-name="unavailable" horiz-adv-x="1132" d="M880.263 523.075h107.789v-577.59h-841.135v574.733h107.789v-466.944h625.556v469.8zM570.012 808.344l-494.365-486.758-75.625 76.807 570.38 561.603 564.744-561.798-76.019-76.418-489.114 486.563zM792.145 409.896v-161.684h-454.656v161.684z" />
<glyph unicode="&#xe935;" glyph-name="clock" d="M512 944c-274 0-496-222-496-496s222-496 496-496 496 222 496 496-222 496-496 496zM512 48c-221 0-400 179-400 400s179 400 400 400 400-179 400-400-179-400-400-400zM635.6 256.8l-169.8 123.4c-6.2 4.6-9.8 11.8-9.8 19.4v328.4c0 13.2 10.8 24 24 24h64c13.2 0 24-10.8 24-24v-283.4l133.6-97.2c10.8-7.8 13-22.8 5.2-33.6l-37.6-51.8c-7.8-10.6-22.8-13-33.6-5.2z" />
<glyph unicode="&#xe936;" glyph-name="uniE936" d="M1019.819 450.091c0-281.615-228.294-509.909-509.909-509.909s-509.909 228.294-509.909 509.909c0 281.615 228.294 509.909 509.909 509.909s509.909-228.294 509.909-509.909z" />
<glyph unicode="&#xe937;" glyph-name="uniE937" d="M509.909-59.819c-281.615 0-509.909 228.294-509.909 509.909s228.294 509.909 509.909 509.909c281.615 0 509.909-228.294 509.909-509.909s-228.294-509.909-509.909-509.909zM509.909-38.485c269.833 0 488.576 218.743 488.576 488.576s-218.743 488.576-488.576 488.576c-269.833 0-488.576-218.743-488.576-488.576s218.743-488.576 488.576-488.576z" />
<glyph unicode="&#xe938;" glyph-name="uniE938" d="M783.872 247.29v405.574h-547.883v-405.574h239.549v2.381h-237.168v139.928h142.309v2.381h-142.309v258.502h163.643v-118.595h2.381v118.595h377.096v-400.811h-163.643v166.024h-2.381v-168.405h168.406zM475.539 508.173v2.381h-144.691v-2.381h144.691zM794.539 236.624h-189.739v189.739h23.715v-166.024h142.31v379.478h-355.763v-118.595h-23.715v118.595h-142.309v-237.168h142.309v-23.715h-142.309v-118.595h237.168v-23.715h-260.883v426.907h569.216v-426.907zM486.205 497.507h-166.024v23.715h166.024v-23.715z" />
<glyph unicode="&#xe939;" glyph-name="phone_2" d="M204.8 516.267c79.644-159.289 216.178-290.133 375.467-375.467l125.156 125.156c17.067 17.067 39.822 22.756 56.889 11.378 62.578-22.756 130.844-34.133 204.8-34.133 34.133 0 56.889-22.756 56.889-56.889v-193.422c0-34.133-22.756-56.889-56.889-56.889-534.756 0-967.111 432.356-967.111 967.111 0 34.133 22.756 56.889 56.889 56.889h199.111c34.133 0 56.889-22.756 56.889-56.889 0-68.267 11.378-136.533 34.133-204.8 5.689-17.067 0-39.822-11.378-56.889l-130.844-125.156z" />
<glyph unicode="&#xe93a;" glyph-name="icon-pet" d="M512 512c-158.82 0-384-245.52-384-400.5 0-69.8 53.62-111.5 143.48-111.5 97.68 0 162.18 50.16 240.52 50.16 79.020 0 143.7-50.16 240.52-50.16 89.86 0 143.48 41.7 143.48 111.5 0 154.98-225.18 400.5-384 400.5zM217.44 537.22c-20.8 69.3-84.88 114.18-143.12 100.26s-88.58-81.38-67.78-150.68c20.8-69.3 84.88-114.18 143.12-100.26s88.58 81.38 67.78 150.68zM386.88 578.78c61.88 16.28 92.84 99.88 69.16 186.72s-93.040 144.020-154.92 127.74-92.84-99.88-69.16-186.72c23.68-86.84 93.060-144.040 154.92-127.74zM949.66 637.46c-58.24 13.92-122.3-30.96-143.12-100.26-20.8-69.3 9.54-136.76 67.78-150.68s122.3 30.96 143.12 100.26c20.8 69.3-9.54 136.76-67.78 150.68zM637.12 578.78c61.88-16.28 131.24 40.9 154.92 127.74s-7.28 170.42-69.16 186.72-131.24-40.9-154.92-127.74c-23.68-86.84 7.28-170.44 69.16-186.72z" />
<glyph unicode="&#xe93b;" glyph-name="home" d="M1024 352l-192 192v288h-128v-160l-192 192-512-512v-32h128v-320h320v192h128v-192h320v320h128z" />
<glyph unicode="&#xe93c;" glyph-name="travel-walk" d="M563.2 601.6l73.728-110.592c15.872-24.064 51.712-43.008 80.384-43.008h153.088v102.4h-153.6l-73.728 110.592c-20.018 27.942-43.738 51.661-70.768 71.058l-0.912 0.622-67.584 45.056c-12.935 7.887-28.583 12.557-45.321 12.557-15.281 0-29.653-3.892-42.179-10.739l0.46 0.23-211.968-126.976v-256h102.4v204.8l102.4 51.2-153.6-716.8h102.4l120.32 391.68 84.48-84.48v-307.2h102.4v409.6l-138.24 138.24 35.84 117.76zM614.4 755.2c56.554 0 102.4 45.846 102.4 102.4s-45.846 102.4-102.4 102.4v0c-56.554 0-102.4-45.846-102.4-102.4s45.846-102.4 102.4-102.4v0z" />
<glyph unicode="&#xe9da;" glyph-name="heart" d="M755.188 896c-107.63 0-200.258-87.554-243.164-179-42.938 91.444-135.578 179-243.216 179-148.382 0-268.808-120.44-268.808-268.832 0-301.846 304.5-380.994 512.022-679.418 196.154 296.576 511.978 387.206 511.978 679.418 0 148.392-120.43 268.832-268.812 268.832z" />
<glyph unicode="&#xe9dc;" glyph-name="heart11" d="M755.188 896c-107.63 0-200.258-87.554-243.164-179-42.938 91.444-135.578 179-243.216 179-148.382 0-268.808-120.44-268.808-268.832 0-301.846 304.5-380.994 512.022-679.418 196.154 296.576 511.978 387.206 511.978 679.418 0 148.392-120.43 268.832-268.812 268.832z" />
<glyph unicode="&#xe9dd;" glyph-name="heart111" d="M755.188 896c-107.63 0-200.258-87.554-243.164-179-42.938 91.444-135.578 179-243.216 179-148.382 0-268.808-120.44-268.808-268.832 0-301.846 304.5-380.994 512.022-679.418 196.154 296.576 511.978 387.206 511.978 679.418 0 148.392-120.43 268.832-268.812 268.832z" />
<glyph unicode="&#xe9e2;" glyph-name="heart1" d="M755.188 896c-107.63 0-200.258-87.554-243.164-179-42.938 91.444-135.578 179-243.216 179-148.382 0-268.808-120.44-268.808-268.832 0-301.846 304.5-380.994 512.022-679.418 196.154 296.576 511.978 387.206 511.978 679.418 0 148.392-120.43 268.832-268.812 268.832z" />
</font>
</defs>
</svg>
